<svg width="98" height="24" viewBox="0 0 98 24" fill="none" xmlns="http://www.w3.org/2000/svg">
<g id="Clip path group">
<mask id="mask0_1039_469" style="mask-type:luminance" maskUnits="userSpaceOnUse" x="0" y="0" width="99" height="24">
<g id="clip0_1264_7346">
<path id="Vector" d="M98.2122 0H0.212158V24H98.2122V0Z" fill="white"/>
</g>
</mask>
<g mask="url(#mask0_1039_469)">
<g id="Group">
<path id="Vector_2" d="M20.0045 23.567H33.1195C33.5361 23.5671 33.9453 23.4601 34.306 23.2569C34.6668 23.0536 34.9663 22.7613 35.1745 22.4093C35.3827 22.0573 35.4922 21.658 35.4921 21.2516C35.4919 20.8452 35.382 20.446 35.1735 20.0941L26.3659 5.21014C26.1577 4.85821 25.8581 4.56596 25.4975 4.36276C25.1368 4.15957 24.7277 4.05259 24.3112 4.05259C23.8947 4.05259 23.4856 4.15957 23.1249 4.36276C22.7642 4.56596 22.4648 4.85821 22.2566 5.21014L20.0045 9.01842L15.6013 1.57144C15.3929 1.21954 15.0933 0.92733 14.7326 0.72417C14.3718 0.521013 13.9626 0.414062 13.546 0.414062C13.1295 0.414062 12.7203 0.521013 12.3595 0.72417C11.9987 0.92733 11.6991 1.21954 11.4908 1.57144L0.530716 20.0941C0.322209 20.446 0.21234 20.8452 0.212158 21.2516C0.211977 21.658 0.32149 22.0573 0.529683 22.4093C0.737876 22.7613 1.03741 23.0536 1.39815 23.2569C1.75889 23.4601 2.16813 23.5671 2.58469 23.567H10.8172C14.079 23.567 16.4845 22.1691 18.1397 19.442L22.1581 12.6522L24.3105 9.01842L30.7703 19.9333H22.1581L20.0045 23.567ZM10.683 19.9296L4.93775 19.9283L13.5498 5.37599L17.847 12.6522L14.9699 17.5154C13.8707 19.2849 12.622 19.9296 10.683 19.9296Z" fill="#00DC82"/>
<path id="Vector_3" d="M45.2228 23.3491V14.683C45.2228 12.2032 44.9661 9.7233 44.9661 9.7233C44.9661 9.7233 45.9416 11.9851 47.1738 14.1108L52.4365 23.3491H56.5696V4.27295H52.6932V12.9389C52.6932 15.4189 52.9499 17.926 52.9499 17.926C52.9499 17.926 51.9744 15.6368 50.7679 13.5112L45.4795 4.27295H41.3721V23.3491H45.2228Z" fill="black"/>
<path id="Vector_4" d="M68.7822 9.61426V17.1357C68.7822 18.8798 67.6784 20.1879 66.1124 20.1879C64.6492 20.1879 63.6223 18.9888 63.6223 17.3264V9.61426H60.054V18.1712C60.054 21.3052 61.9536 23.5671 64.8545 23.5671C66.6259 23.5671 68.0634 22.7495 68.7822 21.4415V23.3491H72.3763V9.61426H68.7822Z" fill="black"/>
<path id="Vector_5" d="M82.8275 16.2092L87.1665 9.61426H83.2384L80.8769 13.2387L78.5147 9.61426H74.6127L78.9516 16.1819L74.2792 23.3491H78.1046L80.9023 19.1251L83.6746 23.3491H87.4744L82.8275 16.2092Z" fill="black"/>
<path id="Vector_6" d="M91.1778 9.61419H88.6874V12.7754H91.1778V18.362C91.1778 21.5504 93.1031 23.349 96.0812 23.349H98.2116V20.1605H96.5689C95.4139 20.1605 94.7458 19.5338 94.7458 18.1985V12.7754H98.2116V9.61419H94.7458V5.55371H91.1778V9.61419Z" fill="black"/>
</g>
</g>
</g>
</svg>
