<svg width="107" height="24" viewBox="0 0 107 24" fill="none" xmlns="http://www.w3.org/2000/svg">
<g id="Company logo" clip-path="url(#clip0_1039_485)">
<path id="Vector" d="M59.5951 0.359H66.0931L62.8231 23.681H56.3251L59.5951 0.359ZM51.4021 0.359L47.0171 13.794L45.1041 0.359H40.5591L34.8171 13.754L34.1001 0.36H27.8011L29.9941 23.682H35.2171L41.6751 8.932L43.9471 23.682H49.0901L57.5821 0.359H51.4021ZM105.96 13.914H90.5311C90.6111 16.944 92.4251 18.937 95.0961 18.937C97.1101 18.937 98.7041 17.86 99.9401 15.807L105.148 18.175C103.358 21.702 99.5861 24 94.9371 24C88.5981 24 84.3921 19.734 84.3921 12.877C84.3921 5.342 89.3351 0 96.3121 0C102.452 0 106.319 4.146 106.319 10.605C106.319 11.681 106.199 12.757 105.96 13.914ZM100.18 9.448C100.18 6.738 98.6641 5.023 96.2331 5.023C93.7211 5.023 91.6481 6.817 91.0891 9.448H100.18ZM7.48912 7.387L0.857117 15.139H12.7011L14.0311 11.484H8.95712L12.0571 7.898L12.0671 7.803L10.0511 4.332H19.1231L12.0911 23.682H16.9031L25.3951 0.358H3.45712L7.49012 7.386L7.48912 7.387ZM76.6571 5.023C78.9491 5.023 80.9571 6.256 82.7121 8.369L83.6331 1.794C82.0001 0.688 79.7871 0 76.8571 0C71.0371 0 67.7671 3.409 67.7671 7.734C67.7671 10.734 69.4421 12.568 72.1931 13.754L73.5081 14.352C75.9601 15.399 76.6181 15.917 76.6181 17.023C76.6181 18.169 75.5121 18.897 73.8281 18.897C71.0461 18.907 68.7941 17.482 67.1001 15.05L66.1601 21.749C68.0911 23.22 70.5651 24 73.8271 24C79.3591 24 82.7571 20.81 82.7571 16.385C82.7571 13.375 81.4221 11.442 78.0531 9.927L76.6181 9.249C74.6241 8.362 73.9471 7.874 73.9471 6.897C73.9471 5.841 74.8741 5.023 76.6571 5.023Z" fill="#163300"/>
</g>
<defs>
<clipPath id="clip0_1039_485">
<rect width="106" height="24" fill="white" transform="translate(0.857117)"/>
</clipPath>
</defs>
</svg>
