<svg width="103" height="24" viewBox="0 0 103 24" fill="none" xmlns="http://www.w3.org/2000/svg">
<g id="Company logo" clip-path="url(#clip0_1039_494)">
<path id="Vector" d="M7.03287 0.870565L0.714233 18.7724H3.4575L5.2892 13.5044H12.1576L13.9925 18.7735H16.8238L10.5062 0.870565H7.03287ZM6.15137 11.0237L8.73143 3.60002L11.2986 11.0237H6.15137ZM28.5914 7.18693C29.0069 7.97238 29.2109 8.85384 29.183 9.74511V18.7473H26.4644V10.2055C26.4644 9.24547 26.2196 8.55602 25.7343 8.12184C25.1972 7.6746 24.5156 7.44634 23.8221 7.48147C23.3518 7.48147 22.8858 7.57202 22.4499 7.74984C22.0033 7.93241 21.6215 8.24807 21.3547 8.65529C21.0478 9.14209 20.8984 9.71426 20.9274 10.2917V18.7822H18.1831V5.35638H20.9145V6.95456C21.0683 6.71964 21.2501 6.50493 21.4557 6.31529C21.8959 5.91493 22.408 5.6062 22.9663 5.40765C23.543 5.19427 24.1522 5.08606 24.7658 5.08802C25.5408 5.07657 26.3064 5.26101 26.9937 5.62475C27.6626 5.98475 28.2177 6.53238 28.5914 7.20111V7.18802V7.18693ZM39.9692 3.86293C39.43 4.20831 39.0397 4.74866 38.8773 5.37493C38.2499 5.17127 37.5946 5.07073 36.936 5.07711C36.0094 5.05886 35.0914 5.26057 34.2551 5.6662C33.4971 6.03778 32.8531 6.61217 32.3922 7.32765C31.9167 8.09164 31.676 8.98225 31.7008 9.88584C31.6761 10.7695 31.908 11.6422 32.3675 12.3917C32.6005 12.7604 32.8883 13.0898 33.22 13.3702C33.1792 13.3898 33.1384 13.4051 33.0976 13.428C32.6504 13.6586 32.2689 14.0019 31.9896 14.4251C31.6835 14.8987 31.5297 15.4571 31.5494 16.0233C31.5666 16.4346 31.6739 16.8371 31.864 17.2004C32.0755 17.6149 32.404 17.9553 32.8088 18.1778C32.3856 18.2725 31.9873 18.4581 31.6406 18.7222C31.3537 18.9384 31.1234 19.2228 30.9699 19.5505C30.8164 19.8783 30.7444 20.2393 30.7602 20.6018C30.7602 21.6906 31.2842 22.5262 32.3332 23.1077C33.3822 23.6902 34.7812 23.9869 36.5334 24C38.5283 24 40.1185 23.6204 41.3038 22.8622C41.8637 22.5277 42.3243 22.0457 42.6367 21.4671C42.9491 20.8885 43.1018 20.2348 43.0786 19.5753C43.1001 19.1231 43.0246 18.6716 42.8572 18.2521C42.6897 17.8326 42.4345 17.4551 42.1091 17.1458C41.3931 16.5237 40.4699 16.2036 39.529 16.2513H38.6862C38.2921 16.2513 37.8734 16.2698 37.4267 16.2895L36.2188 16.3277H35.464C35.0592 16.3473 34.6577 16.2502 34.3055 16.0462C34.169 15.9609 34.0575 15.84 33.9823 15.6962C33.9072 15.5523 33.8713 15.3907 33.8782 15.228C33.8763 15.0629 33.9102 14.8994 33.9776 14.7491C34.045 14.5988 34.1441 14.4655 34.2679 14.3586C34.3506 14.2822 34.4397 14.2124 34.5321 14.1513C35.2468 14.4308 36.0071 14.5704 36.7728 14.5626C37.6898 14.5789 38.5981 14.3815 39.4281 13.9877C40.1889 13.62 40.834 13.0443 41.2909 12.3251C41.7615 11.5589 42.0022 10.6699 41.9834 9.76693C42.0065 8.88508 41.7791 8.01514 41.3285 7.26111C41.0912 6.88333 40.797 6.54576 40.4567 6.26075C40.5661 6.14239 40.7009 6.05129 40.8507 5.99456C41.3543 5.80038 42.1252 5.80911 43.1666 6.03275V3.47566C41.8653 3.20511 40.8002 3.3382 39.9692 3.87493V3.86293ZM39.1264 18.6829C39.5301 18.6557 39.9306 18.7833 40.2462 19.0418C40.3768 19.1625 40.4795 19.3111 40.5469 19.4769C40.6142 19.6427 40.6447 19.8216 40.636 20.0007C40.6353 20.3352 40.537 20.6619 40.3535 20.9396C40.17 21.2173 39.9096 21.4334 39.6052 21.5607C38.9159 21.9186 37.9603 22.0975 36.7353 22.0975C35.5585 22.0975 34.677 21.9251 34.0919 21.5869C33.8344 21.468 33.6152 21.2776 33.4595 21.0377C33.3038 20.7979 33.2178 20.5182 33.2114 20.2309C33.2243 19.8491 33.3725 19.4847 33.6259 19.2055C33.9029 18.8847 34.4 18.7058 35.1237 18.7058L39.1264 18.684V18.6829ZM38.7742 11.7524C38.5194 11.9969 38.2186 12.1865 37.8897 12.3097C37.5609 12.4329 37.2109 12.4871 36.8609 12.4691C36.5059 12.4892 36.1506 12.4347 35.8171 12.3092C35.4837 12.1836 35.1793 11.9896 34.9229 11.7393C34.685 11.4838 34.5001 11.1824 34.3789 10.853C34.2577 10.5236 34.2028 10.1728 34.2175 9.82147C34.1974 9.46955 34.2498 9.11724 34.3713 8.78703C34.4927 8.45682 34.6806 8.15597 34.9229 7.90365C35.183 7.66031 35.4886 7.4726 35.8215 7.35172C36.1544 7.23084 36.5079 7.17925 36.8609 7.20002C37.211 7.18113 37.5612 7.23495 37.8902 7.35817C38.2192 7.4814 38.5199 7.67146 38.7742 7.91675C39.0136 8.17105 39.1996 8.47226 39.3207 8.80198C39.4418 9.13171 39.4955 9.48305 39.4785 9.83456C39.4966 10.1882 39.4434 10.5418 39.3223 10.8738C39.2012 11.2058 39.0147 11.5092 38.7742 11.7655V11.7524ZM53.3731 5.78184C52.4718 5.30562 51.4684 5.06386 50.4527 5.0782C49.3543 5.06289 48.2707 5.33608 47.3068 5.87129C46.3352 6.42112 45.5432 7.24782 45.0284 8.24947C44.427 9.47395 44.1415 10.8335 44.1984 12.2007C44.1702 13.4478 44.4198 14.6852 44.9286 15.8204C45.3825 16.8145 46.1241 17.6441 47.0545 18.1986C48.082 18.7767 49.2426 19.0637 50.4151 19.0298C51.7441 19.068 53.0514 18.6823 54.1536 17.9269C55.2001 17.1723 55.9282 16.0446 56.1926 14.7687H53.3988C53.2464 15.3415 52.8931 15.8378 52.4046 16.1618C51.838 16.5154 51.1804 16.689 50.516 16.6604C49.3392 16.6604 48.4417 16.2469 47.8232 15.42C47.2735 14.6369 46.9598 13.7083 46.9202 12.7473H56.2302C56.2463 12.4767 56.2559 12.1855 56.2559 11.8789C56.2559 10.2927 55.9907 9.00111 55.4625 8.00402C55.0019 7.06991 54.2734 6.29966 53.3731 5.79493V5.78184ZM47.849 8.56802C48.1527 8.17135 48.5453 7.8542 48.9941 7.64299C49.4429 7.43178 49.9349 7.33264 50.429 7.35384C51.0208 7.3449 51.6038 7.4995 52.1158 7.80111C52.6408 8.1262 53.0467 8.61493 53.2743 9.19529C53.4568 9.66002 53.5556 10.1531 53.5696 10.6527H47.0308C47.1275 9.90329 47.4088 9.19093 47.849 8.58111V8.56802ZM58.6341 0.857474H61.3785V18.7593H58.6341V0.857474ZM67.215 16.2535H75.3235V18.7604H64.4696V0.857474H67.2139L67.215 16.2535ZM77.2357 5.34547H79.9768V18.7746H77.2357V5.34547ZM79.7535 0.486565C79.9038 0.641345 80.0221 0.825143 80.1014 1.02712C80.1807 1.22909 80.2194 1.44516 80.2152 1.66256C80.2234 1.99377 80.134 2.31992 79.9586 2.59921C79.7832 2.8785 79.5297 3.09821 79.2306 3.2302C79.0334 3.31341 78.8214 3.35426 78.6079 3.3502C78.3898 3.35638 78.1729 3.31642 77.9709 3.23285C77.7689 3.14927 77.5861 3.02392 77.4343 2.86475C77.2823 2.70581 77.1631 2.51756 77.0839 2.31109C77.0046 2.10462 76.9668 1.88411 76.9727 1.66256C76.9683 1.44513 77.0069 1.22902 77.0862 1.02701C77.1655 0.825013 77.2839 0.641235 77.4343 0.486565C77.5861 0.327393 77.7689 0.202039 77.9709 0.118466C78.1729 0.0348929 78.3898 -0.00507205 78.6079 0.00111022C78.8216 -0.00345114 79.0339 0.0373718 79.2311 0.120966C79.4284 0.20456 79.6063 0.329083 79.7535 0.486565ZM84.6967 9.05456C84.6848 9.24287 84.7147 9.4315 84.7845 9.6064C84.8542 9.7813 84.9618 9.93797 85.0994 10.0647C85.429 10.3222 85.8112 10.5011 86.2192 10.5884C86.697 10.7084 87.2467 10.8153 87.8684 10.908C88.4364 10.9909 88.999 11.1066 89.5541 11.2538C90.0931 11.3924 90.6106 11.6073 91.0895 11.8931C91.5544 12.1669 91.9409 12.5586 92.2104 13.0309C92.5078 13.596 92.6506 14.232 92.6248 14.8724C92.6248 16.2033 92.1513 17.2255 91.2033 17.9422C90.2552 18.6578 88.9969 19.0157 87.4271 19.0157C86.3724 19.0497 85.3234 18.8448 84.3564 18.4157C83.5949 18.0683 82.942 17.5151 82.4688 16.8164C82.052 16.1849 81.7889 15.4617 81.7012 14.7066H84.3693C84.4895 15.3175 84.8245 15.8629 85.313 16.2415C85.8166 16.6342 86.5295 16.8295 87.4529 16.8295C88.1112 16.866 88.766 16.7109 89.3404 16.3822C89.5574 16.2507 89.736 16.0629 89.8577 15.8379C89.9795 15.613 90.04 15.3592 90.033 15.1026C90.0527 14.8196 89.9793 14.5381 89.8245 14.3021C89.6696 14.0661 89.4419 13.8891 89.1772 13.7989C88.4191 13.5318 87.6341 13.3514 86.8366 13.2611C86.277 13.1872 85.722 13.0805 85.1745 12.9415C84.6408 12.812 84.1281 12.6056 83.6521 12.3284C83.1963 12.0583 82.8151 11.6756 82.544 11.2157C82.245 10.6557 82.1014 10.0237 82.1285 9.38729C82.1011 8.54877 82.3299 7.7222 82.7834 7.02111C83.2371 6.36838 83.8664 5.86236 84.5958 5.56365C85.4264 5.22013 86.3168 5.05056 87.2135 5.06511C88.0152 5.04921 88.813 5.18345 89.567 5.46111C90.1983 5.69565 90.7802 6.05129 91.2784 6.50947C91.7165 6.91093 92.0751 7.39311 92.336 7.92875C92.5701 8.39784 92.7032 8.91275 92.7258 9.43747H90.0577C89.9482 8.83701 89.6421 8.29182 89.189 7.89056C88.7295 7.46511 88.0381 7.25129 87.1125 7.25129C86.4914 7.21878 85.8757 7.38431 85.3517 7.72475C85.1406 7.87109 84.9704 8.07051 84.8577 8.30355C84.745 8.5366 84.6936 8.79534 84.7086 9.05456H84.6967ZM98.7169 7.74984V14.016C98.6847 14.6367 98.8297 15.2531 99.1324 15.7942C99.4094 16.2284 99.9699 16.4324 100.806 16.4324C101.23 16.4281 101.652 16.3769 102.065 16.2797V18.7091C101.441 18.816 100.81 18.876 100.177 18.888C98.7362 18.888 97.6744 18.5007 96.9926 17.724C96.3108 16.9495 95.9715 15.8106 95.9726 14.3095V7.73784H93.4816V5.33456H95.9726V2.1382H98.7169V5.33456H102.093V7.73784L98.7169 7.74984Z" fill="#002B31"/>
</g>
<defs>
<clipPath id="clip0_1039_494">
<rect width="102" height="24" fill="white" transform="translate(0.714233)"/>
</clipPath>
</defs>
</svg>
