<svg width="69" height="24" viewBox="0 0 69 24" fill="none" xmlns="http://www.w3.org/2000/svg">
<g id="Company logo">
<path id="Vector" fill-rule="evenodd" clip-rule="evenodd" d="M29.8106 0.689127C28.8884 1.57643 28.8884 3.0973 29.8106 4.01567C30.7328 4.93451 32.2593 4.93451 33.1815 4.01567C34.1032 3.0973 34.1032 1.57643 33.1815 0.689127C32.2593 -0.229709 30.7328 -0.229709 29.8106 0.689127ZM48.3389 6.90622L46.1766 7.25455C42.0516 8.19105 39.3716 9.53288 39.3716 14.0441V23.096L43.1241 23.8562V14.6094C43.1241 12.5013 44.3187 11.5491 46.1766 11.1971L48.3389 10.8023V6.90622ZM19.7781 23.1332L23.5307 23.8933V13.66C23.5307 8.74898 19.7148 6.97487 17.0753 6.97487C15.2947 6.97487 13.8958 7.41829 12.6235 8.65395C11.32 7.41829 9.76192 6.94334 8.48964 6.94334C6.67735 6.94334 5.08712 7.73505 4.03783 9.0027V7.29167L0.285706 8.02035V23.1332L4.03783 23.8933V13.5014C4.03783 11.8538 5.24633 10.6817 7.05908 10.6817C8.83973 10.6817 10.0482 11.8538 10.0482 13.5014V23.1332L13.8003 23.8933V13.5014C13.8003 11.8538 15.0084 10.6817 16.7895 10.6817C18.5701 10.6817 19.7781 11.8538 19.7781 13.5014V23.1332ZM68.2857 15.4559C68.2857 20.1679 64.4395 24 59.7419 24C55.0127 24 51.1665 20.1679 51.1665 15.4559C51.1665 10.7755 55.0127 6.94334 59.7419 6.94334C64.4395 6.94334 68.2857 10.7755 68.2857 15.4559ZM59.7419 20.4503C56.9991 20.4503 54.7604 18.2203 54.7604 15.4559C54.7604 12.7231 56.9991 10.5241 59.7419 10.5241C62.4848 10.5241 64.6914 12.7231 64.6914 15.4559C64.6914 18.2203 62.4848 20.4503 59.7419 20.4503ZM33.3402 24L29.5881 23.1332V7.91272L33.3402 7.15252V24Z" fill="black"/>
</g>
</svg>
