<svg width="132" height="24" viewBox="0 0 132 24" fill="none" xmlns="http://www.w3.org/2000/svg">
<g id="Company logo" clip-path="url(#clip0_1039_497)">
<path id="Vector" d="M11.339 0C12.4643 0 13.503 0.0851064 14.4551 0.340426C15.4072 0.510638 16.1862 0.851064 16.8787 1.2766C17.5711 1.70213 18.0905 2.29787 18.4367 3.06383C18.7829 3.82979 18.9561 4.76596 18.9561 5.78723C18.9561 6.97872 18.6964 8 18.0905 8.76596C17.5711 9.53192 16.7056 10.2128 15.6669 10.7234C17.1384 11.1489 18.2636 11.9149 18.9561 12.9362C19.6485 13.9574 20.0813 15.234 20.0813 16.6809C20.0813 17.8723 19.8216 18.8936 19.3889 19.7447C18.9561 20.5957 18.2636 21.3617 17.4846 21.8723C16.7056 22.383 15.7534 22.8085 14.7148 23.0638C13.6761 23.3191 12.6374 23.4894 11.5987 23.4894H0V0H11.339ZM10.6466 9.53191C11.5987 9.53191 12.3777 9.2766 12.9836 8.85106C13.5895 8.42553 13.8492 7.65957 13.8492 6.7234C13.8492 6.21277 13.7626 5.70213 13.5895 5.3617C13.4164 5.02128 13.1567 4.76596 12.8105 4.51064C12.4643 4.34043 12.118 4.17021 11.6852 4.08511C11.2525 4 10.8197 4 10.3003 4H5.28V9.53191H10.6466ZM10.9062 19.5745C11.4256 19.5745 11.9449 19.4894 12.3777 19.4043C12.8105 19.3191 13.2433 19.1489 13.5895 18.8936C13.9357 18.6383 14.1954 18.383 14.4551 17.9574C14.6282 17.5319 14.8013 17.0213 14.8013 16.4255C14.8013 15.234 14.4551 14.383 13.7626 13.7872C13.0702 13.2766 12.118 13.0213 10.9928 13.0213H5.28V19.5745H10.9062ZM27.6118 19.4894C28.3043 20.1702 29.343 20.5106 30.7279 20.5106C31.68 20.5106 32.5456 20.2553 33.238 19.8298C33.9305 19.3191 34.3633 18.8085 34.5364 18.2979H38.7777C38.0852 20.3404 37.0466 21.7872 35.6616 22.7234C34.2767 23.5745 32.6321 24.0851 30.6413 24.0851C29.2564 24.0851 28.0446 23.8298 26.9193 23.4043C25.7941 22.9787 24.9285 22.383 24.1495 21.5319C23.3705 20.766 22.7646 19.8298 22.4184 18.7234C21.9856 17.617 21.8125 16.4255 21.8125 15.0638C21.8125 13.7872 21.9856 12.5957 22.4184 11.4894C22.8511 10.383 23.457 9.44681 24.2361 8.59575C25.0151 7.82979 25.9672 7.14894 27.0059 6.7234C28.1311 6.29787 29.2564 6.04255 30.6413 6.04255C32.1128 6.04255 33.4111 6.29787 34.5364 6.89362C35.6616 7.48936 36.5272 8.17021 37.2197 9.19149C37.9121 10.1277 38.4315 11.234 38.7777 12.4255C38.9508 13.617 39.0374 14.8085 38.9508 16.1702H26.4C26.4 17.5319 26.9193 18.8085 27.6118 19.4894ZM33.0649 10.5532C32.459 9.95745 31.5069 9.61702 30.3816 9.61702C29.6026 9.61702 28.9967 9.78723 28.4774 10.0426C27.958 10.2979 27.6118 10.6383 27.2656 10.9787C26.9193 11.3191 26.7462 11.7447 26.6597 12.1702C26.5731 12.5957 26.4866 12.9362 26.4866 13.2766H34.2767C34.1036 12 33.6708 11.1489 33.0649 10.5532ZM45.7023 0V8.85106H45.7889C46.3948 7.82979 47.1738 7.14894 48.1259 6.7234C49.078 6.29787 49.9436 6.04255 50.8957 6.04255C52.1941 6.04255 53.2328 6.21277 54.0118 6.55319C54.7908 6.89362 55.4833 7.40426 55.9161 8C56.3489 8.59574 56.6951 9.3617 56.8682 10.2128C57.0413 11.0638 57.1279 12 57.1279 13.1064V23.5745H52.3672V13.9574C52.3672 12.5106 52.1075 11.4894 51.6748 10.8085C51.242 10.1277 50.463 9.78723 49.3377 9.78723C48.0393 9.78723 47.0872 10.2128 46.5679 10.8936C45.962 11.6596 45.7023 12.9362 45.7023 14.6383V23.5745H40.9416V0H45.7023ZM60.5902 9.02128C61.1095 8.25532 61.7154 7.74468 62.4944 7.23404C63.2734 6.80851 64.139 6.46809 65.0911 6.29787C66.0433 6.12766 66.9954 6.04255 67.9475 6.04255C68.8131 6.04255 69.6787 6.12766 70.6308 6.21277C71.4964 6.29787 72.362 6.55319 73.0544 6.89362C73.8334 7.23404 74.3528 7.74468 74.8721 8.34043C75.3049 8.93617 75.5646 9.78723 75.5646 10.8085V19.7447C75.5646 20.5106 75.6511 21.2766 75.7377 21.9574C75.8243 22.6383 76.0839 23.234 76.3436 23.5745H71.4964C71.3233 23.4043 71.2367 23.0638 71.1502 22.8085C71.0636 22.5532 71.0636 22.2128 71.0636 21.9574C70.2846 22.7234 69.419 23.234 68.3803 23.5745C67.3416 23.9149 66.3029 24 65.2643 24C64.3987 24 63.7062 23.9149 62.9272 23.6596C62.2348 23.4894 61.6289 23.1489 61.0229 22.7234C60.5036 22.2979 60.0708 21.7872 59.7246 21.1064C59.4649 20.4255 59.2918 19.7447 59.2918 18.8085C59.2918 17.8723 59.4649 17.0213 59.8111 16.4255C60.1574 15.8298 60.5902 15.3191 61.1095 14.8936C61.6288 14.5532 62.3213 14.2128 63.0138 14.0426C63.7062 13.8723 64.3987 13.7021 65.1777 13.617L67.2551 13.3617C67.9475 13.2766 68.5534 13.1915 69.0728 13.1064C69.5921 12.9362 70.0249 12.766 70.3711 12.5106C70.7174 12.2553 70.8039 11.9149 70.8039 11.4043C70.8039 10.8936 70.7174 10.4681 70.5443 10.2128C70.3711 9.95745 70.1115 9.70213 69.8518 9.53191C69.5921 9.3617 69.2459 9.2766 68.8997 9.19149C68.5534 9.10638 68.1207 9.10638 67.6879 9.10638C66.7357 9.10638 66.0433 9.2766 65.5239 9.70213C65.0046 10.1277 64.6584 10.8085 64.5718 11.6596H59.8111C59.8111 10.6383 60.1574 9.70213 60.5902 9.02128ZM70.0249 15.6596C69.7652 15.7447 69.419 15.8298 69.0728 15.9149C68.7266 16 68.3803 16 67.9475 16.0851C67.6013 16.1702 67.1685 16.1702 66.8223 16.2553L65.7836 16.5106C65.4374 16.5957 65.0911 16.766 64.918 16.9362C64.6584 17.1064 64.4852 17.3617 64.3121 17.617C64.0525 17.9574 64.0525 18.2979 64.0525 18.7234C64.0525 19.1489 64.139 19.4894 64.3121 19.7447C64.4852 20 64.6584 20.2553 64.918 20.4255C65.1777 20.5957 65.5239 20.6809 65.8702 20.766C66.2164 20.8511 66.5626 20.8511 66.9954 20.8511C67.9475 20.8511 68.64 20.6809 69.1593 20.4255C69.6787 20.0851 70.0249 19.7447 70.2846 19.3192C70.5443 18.8936 70.7174 18.4681 70.7174 18.0426C70.8039 17.617 70.8039 17.2766 70.8039 17.0213V15.234C70.5443 15.4043 70.2846 15.5745 70.0249 15.6596ZM82.7488 6.46809V8.85106H82.8354C83.4413 7.82979 84.2203 7.14894 85.1725 6.7234C86.1246 6.29787 87.1633 6.04255 88.1154 6.04255C89.4138 6.04255 90.4525 6.21277 91.2315 6.55319C92.0971 6.89362 92.7029 7.40426 93.1357 8C93.5685 8.59574 93.9148 9.3617 94.1744 10.2128C94.3475 11.0638 94.4341 12 94.4341 13.1064V23.5745H89.6734V13.9574C89.6734 12.5106 89.4138 11.4894 88.981 10.8085C88.5482 10.1277 87.7692 9.70213 86.5574 9.70213C85.259 9.70213 84.3069 10.2128 83.701 10.9787C83.0951 11.7447 82.8354 13.0213 82.8354 14.7234V23.6596H78.0748V6.46809H82.7488ZM105.081 9.53191C104.302 9.53191 103.696 9.70213 103.176 10.0426C102.657 10.383 102.224 10.8085 101.878 11.4043C101.532 11.9149 101.359 12.5106 101.186 13.1915C101.012 13.8723 101.012 14.4681 101.012 15.1489C101.012 15.7447 101.099 16.4255 101.186 17.0213C101.359 17.7021 101.532 18.2128 101.878 18.7234C102.224 19.234 102.57 19.6596 103.09 20C103.609 20.3404 104.215 20.5106 104.994 20.5106C106.119 20.5106 106.985 20.1702 107.677 19.5745C108.283 18.9787 108.716 18.1277 108.803 17.0213H113.39C113.044 19.3191 112.178 21.0213 110.707 22.2128C109.235 23.4043 107.331 24 104.994 24C103.696 24 102.484 23.7447 101.445 23.3191C100.32 22.8936 99.4544 22.2979 98.6754 21.5319C97.8964 20.766 97.2905 19.8298 96.8577 18.8085C96.4249 17.7021 96.2518 16.5957 96.2518 15.3191C96.2518 13.9574 96.4249 12.766 96.8577 11.6596C97.2905 10.5532 97.8098 9.53191 98.5889 8.68085C99.3679 7.82979 100.32 7.23404 101.359 6.7234C102.484 6.29787 103.696 6.04255 105.081 6.04255C106.119 6.04255 107.071 6.21277 108.024 6.46809C108.976 6.7234 109.841 7.14894 110.534 7.65957C111.313 8.17021 111.919 8.85106 112.351 9.70213C112.784 10.4681 113.044 11.4894 113.13 12.5957H108.456C108.283 10.5532 107.158 9.53191 105.081 9.53191ZM25.4479 1.61702H35.1423V3.91489H25.4479V1.61702ZM120.574 19.4894C121.267 20.1702 122.392 20.5106 123.69 20.5106C124.643 20.5106 125.508 20.2553 126.201 19.8298C126.893 19.3191 127.326 18.8085 127.499 18.2979H131.654C130.961 20.3404 129.923 21.7872 128.538 22.7234C127.153 23.5745 125.508 24.0851 123.517 24.0851C122.132 24.0851 120.921 23.8298 119.795 23.4043C118.67 22.9787 117.805 22.383 117.026 21.5319C116.247 20.766 115.641 19.8298 115.294 18.7234C114.862 17.617 114.689 16.4255 114.689 15.0638C114.689 13.7872 114.862 12.5957 115.294 11.4894C115.727 10.383 116.333 9.44681 117.112 8.59575C117.891 7.82979 118.843 7.14894 119.882 6.7234C121.007 6.29787 122.219 6.04255 123.517 6.04255C124.989 6.04255 126.287 6.29787 127.326 6.89362C128.451 7.48936 129.317 8.17021 130.009 9.19149C130.702 10.1277 131.221 11.234 131.567 12.4255C131.913 13.617 132 14.8936 131.913 16.2553H119.363C119.363 17.5319 119.882 18.8085 120.574 19.4894ZM126.114 10.5532C125.508 9.95745 124.556 9.61702 123.431 9.61702C122.652 9.61702 122.046 9.78723 121.527 10.0426C121.007 10.2979 120.574 10.6383 120.315 10.9787C120.055 11.3191 119.795 11.7447 119.709 12.1702C119.622 12.5957 119.536 12.9362 119.536 13.2766H127.326C127.066 12 126.633 11.1489 126.114 10.5532Z" fill="black"/>
</g>
<defs>
<clipPath id="clip0_1039_497">
<rect width="132" height="24" fill="white"/>
</clipPath>
</defs>
</svg>
