<svg width="99" height="24" viewBox="0 0 99 24" fill="none" xmlns="http://www.w3.org/2000/svg">
<g id="Company logo">
<path id="Vector" fill-rule="evenodd" clip-rule="evenodd" d="M97.9909 18.9479C93.8957 25.9088 87.41 23.889 85.4621 22.3075C84.6331 22.8714 83.1795 24.1074 81.2412 23.9647C77.1132 23.6609 75.6349 17.7468 75.6349 17.7468C75.6646 17.7705 74.4053 18.1825 73.7247 18.1751C73.7159 19.9095 72.2205 24.0525 68.1847 23.9995C63.656 23.9403 62.7353 17.1761 62.7353 17.1761C62.7353 17.1761 62.2846 17.8034 60.571 18.4284C60.6573 17.0959 60.5943 23.7967 55.1663 23.8952C50.8752 23.9731 49.7169 17.0717 49.7169 17.0717C49.7169 17.0717 48.9725 17.847 47.5298 18.1159C47.6215 16.7617 47.4724 23.9179 42.0439 23.8952C38.3753 23.8799 37.1217 19.6439 37.2192 19.056C37.3436 18.3067 35.9794 24.0005 32.4159 23.9118C30.9454 23.8685 29.8491 22.8011 29.1611 21.378C28.2402 22.4345 26.9031 23.9118 25.4032 23.9118C22.7108 23.9118 21.5238 21.6542 21.7249 15.2059C21.742 14.4411 21.687 14.1403 20.9286 14.0259C20.4734 13.9497 20.0073 13.8056 19.5141 13.7296C19.356 14.2585 18.0152 23.7398 13.4047 23.9197C11.8579 23.9801 11.0122 22.6368 10.3176 21.6398C9.25292 23.0519 7.84744 23.9647 5.84522 23.9647C2.45362 23.9647 0.142822 21.2159 0.142822 17.8252C0.142822 14.4343 2.45362 11.6858 5.84522 11.6858C6.44489 11.6858 6.61323 11.7719 7.16107 11.9322C6.03443 1.64832 8.6951 0.0410923 11.0226 0.0410923C13.2572 0.0410923 17.0746 5.24063 11.7031 18.4294C12.8957 22.3633 15.4667 22.1408 16.7021 14.0427C16.9536 12.3966 16.2812 10.1753 17.327 9.86524C19.2386 9.29865 19.4415 10.9986 20.3378 11.2818C21.2855 11.5812 21.8387 11.552 22.7486 11.7425C24.3033 12.0468 24.91 12.8842 24.7206 14.7491C24.4931 17.1087 24.0952 20.5432 25.3084 20.9618C26.1834 21.2658 27.7808 19.4468 28.0611 18.4515C28.3413 17.4562 28.3998 17.1156 28.4247 16.3856C28.4626 14.8253 28.5102 13.6816 28.7756 12.5017C28.8892 12.0451 29.0187 11.7427 29.5339 11.722C29.9579 11.7112 30.7333 11.5832 31.0746 11.8495C31.5295 12.1922 31.4727 12.54 31.4204 13.4551C30.8914 26.5034 34.9635 19.9896 36.1777 14.774C35.7453 8.87636 36.0422 0.149088 39.7285 0.00271624C41.6457 -0.0734055 42.4933 1.46639 42.5865 2.6157C42.8502 5.86178 41.3731 11.2389 39.4305 14.8549C38.3203 22.2333 44.2847 23.6922 45.2386 17.8028C43.678 17.0589 41.9915 14.0481 43.3639 12.5809C44.134 11.7574 47.3395 12.9404 47.392 15.5204C48.9644 15.0989 49.1743 14.2088 49.1961 14.3563C48.7639 8.45866 49.1647 0.149165 52.8514 0.0027916C54.7683 -0.0733301 55.6157 1.46646 55.709 2.61578C55.9726 5.86185 54.4956 11.2389 52.5532 14.8551C51.4429 22.2333 57.4075 23.6923 58.361 17.8029C57.2056 17.5794 54.7667 14.377 56.1739 12.5809C56.926 11.6212 60.1197 13.6171 60.4773 15.6059C61.9878 15.1773 62.1929 14.3156 62.2146 14.4606C61.7822 8.56318 62.1831 0.253684 65.8698 0.107311C67.7867 0.0311896 68.6341 1.57098 68.7274 2.72029C68.9911 5.96637 67.514 11.3436 65.5714 14.9596C64.4613 22.338 70.4257 23.7967 71.3795 17.9073C69.7918 17.6422 67.5354 14.2609 69.3515 12.5311C70.077 11.84 72.8495 13.6341 73.4985 15.6809C74.4003 15.6461 74.9616 15.3343 75.0819 15.3029C73.6423 8.37939 74.714 0.0722368 78.6798 0.00289311C80.8233 -0.0345504 82.9188 1.16465 81.999 7.75142C81.121 14.036 77.965 16.6733 77.9724 16.7137C78.156 17.4666 79.7754 23.7674 83.8535 20.4429C83.6424 19.9636 83.4311 19.4741 83.313 18.881C82.637 15.4261 83.9647 11.5237 87.5733 10.893C89.6408 10.5317 91.5884 11.5409 91.8964 13.8159C92.403 17.5387 89.05 20.2347 87.7749 20.8196C87.2038 20.4943 92.9517 24.1901 96.3628 16.7837C96.5606 16.3609 96.7991 16.3967 97.108 16.6146C97.3262 16.7686 98.569 17.9489 97.9909 18.9479ZM8.31231 16.9104C8.13875 16.3902 7.78255 15.2439 7.6566 14.7472C6.96291 14.1425 6.46778 14.0442 5.57737 14.0442C3.59861 14.0442 2.43395 15.8784 2.43395 17.8562C2.43395 19.8338 3.70276 21.6683 5.68154 21.6683C7.39637 21.6683 8.70151 20.4994 9.0997 18.8446C8.82099 18.1995 8.54452 17.6067 8.31231 16.9104ZM10.9741 2.7633C9.58374 2.7633 9.11209 6.08853 9.20362 8.92526C9.28458 11.4333 9.98362 13.6413 10.3462 14.6306C10.4383 14.7546 10.4212 14.6739 10.5034 14.8054C12.9176 9.50244 11.9162 2.7633 10.9741 2.7633ZM39.9271 2.86776C38.1301 2.66114 38.1417 10.1661 38.3648 11.8495C39.2981 10.3527 40.9193 3.27079 39.9271 2.86776ZM53.0495 2.86776C51.2525 2.66114 51.2641 10.1661 51.4873 11.8495C52.4205 10.3527 54.0419 3.27079 53.0495 2.86776ZM66.0681 2.97218C64.2709 2.76555 64.2825 10.2705 64.5057 11.9541C65.4389 10.4571 67.0603 3.37518 66.0681 2.97218ZM78.8781 2.42843C76.0783 2.9921 76.7302 12.351 77.1555 13.9924C80.4534 9.45115 80.5214 2.25785 78.8781 2.42843ZM89.3712 14.1239C89.2288 13.5271 88.517 13.2082 88.0257 13.2868C86.62 13.4793 85.2565 15.2346 85.7843 17.907C85.9017 18.5022 86.1957 19.0501 86.191 19.0318C89.3371 16.9157 89.6046 15.2482 89.3712 14.1239ZM30.085 9.65634C29.6832 9.65642 29.2905 9.53703 28.9564 9.3133C28.6223 9.08955 28.3618 8.7715 28.208 8.39936C28.0541 8.02723 28.0139 7.61771 28.0923 7.22263C28.1706 6.82754 28.3641 6.46462 28.6482 6.17976C28.9323 5.8949 29.2942 5.70091 29.6883 5.62231C30.0823 5.54371 30.4908 5.58403 30.8621 5.73819C31.2333 5.89234 31.5505 6.1534 31.7737 6.48834C31.997 6.82328 32.1161 7.21707 32.1161 7.61988C32.1161 7.8873 32.0636 8.15211 31.9615 8.39916C31.8595 8.64624 31.7099 8.87072 31.5213 9.05983C31.3326 9.24893 31.1088 9.39894 30.8623 9.50129C30.6159 9.60365 30.3518 9.65633 30.085 9.65634Z" fill="#0D0C22"/>
</g>
</svg>
