<svg width="592" height="490" viewBox="0 0 592 490" fill="none" xmlns="http://www.w3.org/2000/svg">
<rect width="592" height="490" rx="8" fill="#FAF9FF"/>
<rect x="107" y="111" width="408.677" height="271.04" rx="12.9841" fill="white"/>
<rect x="107.5" y="111.5" width="407.677" height="270.04" rx="12.4841" stroke="url(#paint0_linear_1039_1158)" stroke-opacity="0.5"/>
<path d="M139.415 157.26C138.409 157.26 137.5 157.088 136.688 156.744C135.883 156.394 135.218 155.897 134.692 155.254C134.173 154.605 133.835 153.836 133.679 152.946L135.802 152.625C136.016 153.482 136.464 154.151 137.146 154.631C137.828 155.105 138.623 155.342 139.532 155.342C140.097 155.342 140.616 155.254 141.09 155.079C141.564 154.897 141.944 154.641 142.229 154.31C142.521 153.972 142.667 153.57 142.667 153.102C142.667 152.849 142.622 152.625 142.531 152.43C142.447 152.236 142.327 152.067 142.171 151.924C142.021 151.775 141.836 151.648 141.616 151.544C141.401 151.434 141.164 151.34 140.905 151.262L137.311 150.2C136.961 150.096 136.604 149.963 136.24 149.801C135.877 149.632 135.542 149.415 135.237 149.149C134.939 148.876 134.695 148.542 134.507 148.146C134.319 147.743 134.224 147.256 134.224 146.685C134.224 145.821 134.445 145.091 134.887 144.494C135.335 143.89 135.938 143.436 136.698 143.13C137.458 142.819 138.308 142.663 139.249 142.663C140.197 142.676 141.044 142.845 141.791 143.169C142.544 143.494 143.167 143.961 143.661 144.572C144.161 145.175 144.505 145.909 144.693 146.772L142.512 147.143C142.414 146.617 142.206 146.165 141.888 145.789C141.57 145.406 141.181 145.114 140.72 144.912C140.259 144.705 139.759 144.598 139.22 144.591C138.701 144.578 138.224 144.656 137.789 144.825C137.36 144.994 137.016 145.231 136.756 145.536C136.503 145.841 136.377 146.191 136.377 146.587C136.377 146.977 136.49 147.292 136.717 147.532C136.945 147.772 137.224 147.964 137.555 148.107C137.892 148.243 138.227 148.357 138.558 148.447L141.148 149.178C141.473 149.269 141.84 149.392 142.249 149.548C142.664 149.697 143.063 149.908 143.446 150.181C143.836 150.453 144.157 150.817 144.411 151.271C144.664 151.719 144.79 152.284 144.79 152.966C144.79 153.674 144.647 154.297 144.362 154.836C144.076 155.368 143.683 155.816 143.184 156.179C142.69 156.537 142.119 156.806 141.47 156.988C140.82 157.17 140.136 157.26 139.415 157.26ZM151.803 157.26C150.797 157.26 149.953 157.017 149.271 156.53C148.589 156.037 148.073 155.371 147.723 154.534C147.372 153.696 147.197 152.752 147.197 151.7C147.197 150.648 147.369 149.704 147.713 148.866C148.063 148.029 148.576 147.37 149.251 146.889C149.933 146.402 150.771 146.159 151.764 146.159C152.751 146.159 153.601 146.402 154.315 146.889C155.036 147.37 155.591 148.029 155.98 148.866C156.37 149.697 156.565 150.642 156.565 151.7C156.565 152.752 156.37 153.7 155.98 154.543C155.597 155.381 155.049 156.043 154.335 156.53C153.627 157.017 152.783 157.26 151.803 157.26ZM146.856 161.643V146.451H148.667V154.018H148.901V161.643H146.856ZM151.52 155.42C152.17 155.42 152.705 155.254 153.127 154.923C153.556 154.592 153.874 154.147 154.082 153.589C154.296 153.024 154.403 152.395 154.403 151.7C154.403 151.012 154.296 150.389 154.082 149.83C153.874 149.272 153.552 148.827 153.117 148.496C152.682 148.165 152.127 147.999 151.452 147.999C150.816 147.999 150.29 148.155 149.875 148.467C149.466 148.779 149.161 149.213 148.959 149.772C148.765 150.33 148.667 150.973 148.667 151.7C148.667 152.427 148.765 153.07 148.959 153.628C149.154 154.186 149.462 154.625 149.884 154.943C150.306 155.261 150.852 155.42 151.52 155.42ZM163.379 157.26C162.334 157.26 161.416 157.033 160.624 156.579C159.838 156.118 159.224 155.478 158.783 154.66C158.348 153.836 158.131 152.882 158.131 151.797C158.131 150.648 158.345 149.652 158.773 148.808C159.208 147.964 159.812 147.311 160.585 146.85C161.357 146.389 162.256 146.159 163.282 146.159C164.353 146.159 165.265 146.409 166.018 146.909C166.772 147.402 167.333 148.107 167.703 149.022C168.08 149.937 168.229 151.025 168.151 152.284H166.116V151.544C166.103 150.324 165.869 149.421 165.415 148.837C164.967 148.253 164.282 147.961 163.36 147.961C162.341 147.961 161.575 148.282 161.062 148.925C160.549 149.567 160.292 150.496 160.292 151.71C160.292 152.865 160.549 153.761 161.062 154.397C161.575 155.027 162.315 155.342 163.282 155.342C163.918 155.342 164.467 155.199 164.928 154.914C165.395 154.621 165.759 154.206 166.018 153.667L168.015 154.3C167.606 155.241 166.986 155.972 166.155 156.491C165.324 157.004 164.399 157.26 163.379 157.26ZM159.63 152.284V150.697H167.138V152.284H159.63ZM177.432 156.968V151.797C177.432 151.388 177.396 150.97 177.325 150.541C177.26 150.106 177.13 149.704 176.935 149.334C176.747 148.964 176.478 148.665 176.127 148.438C175.783 148.21 175.332 148.097 174.774 148.097C174.41 148.097 174.066 148.159 173.741 148.282C173.417 148.399 173.131 148.59 172.884 148.856C172.644 149.123 172.453 149.473 172.31 149.908C172.174 150.343 172.105 150.872 172.105 151.495L170.839 151.018C170.839 150.064 171.018 149.223 171.375 148.496C171.732 147.763 172.245 147.191 172.914 146.782C173.582 146.373 174.391 146.169 175.338 146.169C176.066 146.169 176.676 146.286 177.169 146.519C177.663 146.753 178.062 147.061 178.367 147.444C178.679 147.821 178.916 148.233 179.078 148.681C179.24 149.129 179.351 149.567 179.409 149.996C179.467 150.424 179.497 150.801 179.497 151.125V156.968H177.432ZM170.041 156.968V146.451H171.862V149.489H172.105V156.968H170.041ZM186.078 157.26C185.097 157.26 184.25 157.017 183.536 156.53C182.828 156.043 182.28 155.381 181.89 154.543C181.507 153.7 181.316 152.752 181.316 151.7C181.316 150.642 181.51 149.697 181.9 148.866C182.289 148.029 182.841 147.37 183.555 146.889C184.276 146.402 185.13 146.159 186.117 146.159C187.11 146.159 187.944 146.402 188.619 146.889C189.301 147.37 189.814 148.029 190.158 148.866C190.508 149.704 190.684 150.648 190.684 151.7C190.684 152.752 190.508 153.696 190.158 154.534C189.807 155.371 189.291 156.037 188.609 156.53C187.928 157.017 187.084 157.26 186.078 157.26ZM186.36 155.42C187.029 155.42 187.574 155.261 187.996 154.943C188.418 154.625 188.726 154.186 188.921 153.628C189.116 153.07 189.213 152.427 189.213 151.7C189.213 150.973 189.113 150.33 188.911 149.772C188.717 149.213 188.411 148.779 187.996 148.467C187.587 148.155 187.064 147.999 186.428 147.999C185.753 147.999 185.198 148.165 184.763 148.496C184.328 148.827 184.003 149.272 183.789 149.83C183.581 150.389 183.477 151.012 183.477 151.7C183.477 152.395 183.581 153.024 183.789 153.589C184.003 154.147 184.321 154.592 184.743 154.923C185.172 155.254 185.711 155.42 186.36 155.42ZM189.213 156.968V149.402H188.98V142.945H191.025V156.968H189.213ZM193.944 144.727V142.751H195.979V144.727H193.944ZM193.944 156.968V146.451H195.979V156.968H193.944ZM206.285 156.968V151.797C206.285 151.388 206.249 150.97 206.178 150.541C206.113 150.106 205.983 149.704 205.788 149.334C205.6 148.964 205.331 148.665 204.98 148.438C204.636 148.21 204.185 148.097 203.627 148.097C203.263 148.097 202.919 148.159 202.594 148.282C202.27 148.399 201.984 148.59 201.737 148.856C201.497 149.123 201.306 149.473 201.163 149.908C201.026 150.343 200.958 150.872 200.958 151.495L199.692 151.018C199.692 150.064 199.871 149.223 200.228 148.496C200.585 147.763 201.098 147.191 201.767 146.782C202.435 146.373 203.243 146.169 204.191 146.169C204.918 146.169 205.529 146.286 206.022 146.519C206.515 146.753 206.915 147.061 207.22 147.444C207.531 147.821 207.768 148.233 207.931 148.681C208.093 149.129 208.203 149.567 208.262 149.996C208.32 150.424 208.349 150.801 208.349 151.125V156.968H206.285ZM198.894 156.968V146.451H200.715V149.489H200.958V156.968H198.894ZM215.219 161.935C214.655 161.935 214.106 161.847 213.574 161.672C213.048 161.496 212.567 161.237 212.132 160.893C211.697 160.555 211.337 160.136 211.052 159.637L212.931 158.682C213.158 159.13 213.483 159.458 213.905 159.666C214.327 159.873 214.771 159.977 215.239 159.977C215.817 159.977 216.31 159.873 216.719 159.666C217.128 159.464 217.436 159.159 217.644 158.75C217.858 158.341 217.962 157.835 217.956 157.231V154.29H218.199V146.451H220.001V157.251C220.001 157.53 219.991 157.796 219.972 158.049C219.952 158.302 219.916 158.556 219.864 158.809C219.715 159.516 219.43 160.101 219.008 160.562C218.592 161.023 218.06 161.367 217.41 161.594C216.768 161.821 216.037 161.935 215.219 161.935ZM215.064 157.26C214.083 157.26 213.236 157.017 212.522 156.53C211.814 156.043 211.266 155.381 210.876 154.543C210.493 153.7 210.302 152.752 210.302 151.7C210.302 150.642 210.496 149.697 210.886 148.866C211.275 148.029 211.827 147.37 212.541 146.889C213.262 146.402 214.116 146.159 215.103 146.159C216.096 146.159 216.93 146.402 217.605 146.889C218.287 147.37 218.8 148.029 219.144 148.866C219.494 149.704 219.67 150.648 219.67 151.7C219.67 152.752 219.494 153.696 219.144 154.534C218.793 155.371 218.277 156.037 217.596 156.53C216.914 157.017 216.07 157.26 215.064 157.26ZM215.346 155.42C216.015 155.42 216.56 155.261 216.982 154.943C217.404 154.625 217.712 154.186 217.907 153.628C218.102 153.07 218.199 152.427 218.199 151.7C218.199 150.973 218.099 150.33 217.897 149.772C217.703 149.213 217.398 148.779 216.982 148.467C216.573 148.155 216.05 147.999 215.414 147.999C214.739 147.999 214.184 148.165 213.749 148.496C213.314 148.827 212.989 149.272 212.775 149.83C212.567 150.389 212.464 151.012 212.464 151.7C212.464 152.395 212.567 153.024 212.775 153.589C212.989 154.147 213.308 154.592 213.729 154.923C214.158 155.254 214.697 155.42 215.346 155.42Z" fill="#121417"/>
<g clip-path="url(#clip0_1039_1158)">
<path d="M135.403 174.329C135.403 173.684 135.659 173.064 136.116 172.608C136.572 172.151 137.192 171.895 137.837 171.895H147.575C148.221 171.895 148.84 172.151 149.297 172.608C149.753 173.064 150.01 173.684 150.01 174.329V180.821C150.01 181.467 149.753 182.086 149.297 182.543C148.84 182.999 148.221 183.256 147.575 183.256H137.837C137.192 183.256 136.572 182.999 136.116 182.543C135.659 182.086 135.403 181.467 135.403 180.821V174.329Z" stroke="#5A6475" stroke-width="1.21726" stroke-linecap="round" stroke-linejoin="round"/>
<path d="M135.403 175.952H150.01" stroke="#5A6475" stroke-width="1.21726" stroke-linecap="round" stroke-linejoin="round"/>
<path d="M138.649 180.01H138.658" stroke="#5A6475" stroke-width="1.21726" stroke-linecap="round" stroke-linejoin="round"/>
<path d="M141.895 180.01H143.518" stroke="#5A6475" stroke-width="1.21726" stroke-linecap="round" stroke-linejoin="round"/>
</g>
<path d="M161.362 172.503C161.783 172.506 162.198 172.583 162.607 172.734C163.016 172.884 163.384 173.13 163.713 173.471C164.045 173.813 164.31 174.274 164.506 174.855C164.706 175.433 164.808 176.152 164.811 177.013C164.811 177.839 164.728 178.576 164.562 179.221C164.396 179.864 164.158 180.406 163.847 180.849C163.54 181.291 163.166 181.628 162.727 181.859C162.287 182.089 161.792 182.204 161.242 182.204C160.679 182.204 160.18 182.094 159.743 181.872C159.307 181.651 158.952 181.345 158.678 180.955C158.405 180.561 158.234 180.11 158.167 179.599H159.573C159.665 180.005 159.853 180.334 160.135 180.586C160.421 180.835 160.79 180.959 161.242 180.959C161.934 180.959 162.473 180.658 162.86 180.056C163.248 179.45 163.443 178.605 163.446 177.52H163.372C163.212 177.784 163.013 178.012 162.773 178.202C162.536 178.393 162.27 178.54 161.975 178.645C161.68 178.749 161.365 178.802 161.03 178.802C160.486 178.802 159.991 178.668 159.545 178.4C159.099 178.133 158.744 177.766 158.48 177.298C158.216 176.831 158.084 176.298 158.084 175.699C158.084 175.102 158.219 174.561 158.489 174.076C158.763 173.59 159.144 173.206 159.633 172.923C160.125 172.637 160.701 172.497 161.362 172.503ZM161.366 173.702C161.007 173.702 160.682 173.791 160.394 173.969C160.108 174.145 159.882 174.383 159.716 174.684C159.55 174.982 159.467 175.314 159.467 175.68C159.467 176.046 159.547 176.378 159.707 176.676C159.869 176.971 160.091 177.206 160.37 177.381C160.653 177.554 160.976 177.64 161.339 177.64C161.609 177.64 161.861 177.587 162.095 177.483C162.329 177.378 162.533 177.234 162.708 177.05C162.883 176.862 163.02 176.65 163.119 176.413C163.217 176.177 163.266 175.928 163.266 175.666C163.266 175.319 163.183 174.996 163.017 174.698C162.854 174.4 162.63 174.16 162.344 173.979C162.058 173.794 161.732 173.702 161.366 173.702ZM169.764 182.204C169.131 182.204 168.565 182.095 168.067 181.877C167.572 181.659 167.18 181.356 166.891 180.969C166.606 180.578 166.452 180.126 166.43 179.613H167.878C167.897 179.893 167.99 180.136 168.159 180.342C168.331 180.545 168.556 180.701 168.833 180.812C169.109 180.923 169.417 180.978 169.755 180.978C170.127 180.978 170.456 180.913 170.741 180.784C171.03 180.655 171.256 180.475 171.419 180.245C171.582 180.011 171.664 179.742 171.664 179.438C171.664 179.121 171.582 178.843 171.419 178.603C171.259 178.361 171.024 178.17 170.714 178.032C170.406 177.893 170.034 177.824 169.598 177.824H168.8V176.662H169.598C169.948 176.662 170.256 176.599 170.52 176.473C170.788 176.347 170.997 176.172 171.147 175.948C171.298 175.72 171.373 175.454 171.373 175.15C171.373 174.858 171.307 174.604 171.175 174.389C171.046 174.171 170.861 174 170.622 173.877C170.385 173.754 170.105 173.693 169.782 173.693C169.475 173.693 169.188 173.75 168.92 173.863C168.656 173.974 168.441 174.134 168.275 174.343C168.109 174.549 168.019 174.796 168.007 175.085H166.629C166.644 174.575 166.795 174.126 167.08 173.739C167.369 173.352 167.751 173.049 168.224 172.831C168.697 172.612 169.223 172.503 169.801 172.503C170.406 172.503 170.929 172.622 171.369 172.858C171.811 173.092 172.152 173.404 172.392 173.794C172.635 174.185 172.755 174.612 172.752 175.076C172.755 175.605 172.607 176.054 172.309 176.422C172.014 176.791 171.621 177.039 171.129 177.165V177.239C171.756 177.334 172.241 177.583 172.586 177.986C172.933 178.388 173.105 178.888 173.102 179.484C173.105 180.004 172.961 180.469 172.669 180.881C172.38 181.293 171.985 181.617 171.484 181.854C170.983 182.088 170.409 182.204 169.764 182.204ZM174.647 180.231V179.078L178.727 172.632H179.636V174.329H179.059L176.141 178.949V179.023H181.734V180.231H174.647ZM179.124 182.075V179.881L179.133 179.355V172.632H180.484V182.075H179.124ZM186.481 172.503C186.902 172.506 187.317 172.583 187.725 172.734C188.134 172.884 188.503 173.13 188.832 173.471C189.164 173.813 189.428 174.274 189.625 174.855C189.825 175.433 189.926 176.152 189.929 177.013C189.929 177.839 189.846 178.576 189.68 179.221C189.514 179.864 189.276 180.406 188.966 180.849C188.658 181.291 188.285 181.628 187.845 181.859C187.406 182.089 186.911 182.204 186.361 182.204C185.798 182.204 185.299 182.094 184.862 181.872C184.426 181.651 184.071 181.345 183.797 180.955C183.523 180.561 183.353 180.11 183.285 179.599H184.692C184.784 180.005 184.971 180.334 185.254 180.586C185.54 180.835 185.909 180.959 186.361 180.959C187.052 180.959 187.592 180.658 187.979 180.056C188.366 179.45 188.562 178.605 188.565 177.52H188.491C188.331 177.784 188.131 178.012 187.891 178.202C187.655 178.393 187.389 178.54 187.094 178.645C186.799 178.749 186.484 178.802 186.149 178.802C185.604 178.802 185.11 178.668 184.664 178.4C184.218 178.133 183.863 177.766 183.599 177.298C183.334 176.831 183.202 176.298 183.202 175.699C183.202 175.102 183.337 174.561 183.608 174.076C183.882 173.59 184.263 173.206 184.751 172.923C185.243 172.637 185.82 172.497 186.481 172.503ZM186.485 173.702C186.125 173.702 185.801 173.791 185.512 173.969C185.226 174.145 185 174.383 184.834 174.684C184.668 174.982 184.585 175.314 184.585 175.68C184.585 176.046 184.665 176.378 184.825 176.676C184.988 176.971 185.209 177.206 185.489 177.381C185.772 177.554 186.095 177.64 186.457 177.64C186.728 177.64 186.98 177.587 187.214 177.483C187.447 177.378 187.652 177.234 187.827 177.05C188.002 176.862 188.139 176.65 188.237 176.413C188.336 176.177 188.385 175.928 188.385 175.666C188.385 175.319 188.302 174.996 188.136 174.698C187.973 174.4 187.749 174.16 187.463 173.979C187.177 173.794 186.851 173.702 186.485 173.702ZM201.108 174.993L198.54 182.075H197.065L194.492 174.993H195.972L197.766 180.443H197.839L199.628 174.993H201.108ZM202.404 182.075V174.993H203.783V182.075H202.404ZM203.1 173.9C202.861 173.9 202.655 173.82 202.482 173.661C202.313 173.498 202.229 173.304 202.229 173.08C202.229 172.852 202.313 172.658 202.482 172.499C202.655 172.336 202.861 172.254 203.1 172.254C203.34 172.254 203.544 172.336 203.714 172.499C203.886 172.658 203.972 172.852 203.972 173.08C203.972 173.304 203.886 173.498 203.714 173.661C203.544 173.82 203.34 173.9 203.1 173.9ZM210.945 176.722L209.695 176.943C209.643 176.784 209.56 176.631 209.446 176.487C209.335 176.343 209.185 176.224 208.994 176.132C208.804 176.04 208.565 175.994 208.279 175.994C207.889 175.994 207.563 176.081 207.302 176.256C207.041 176.429 206.91 176.651 206.91 176.925C206.91 177.162 206.998 177.352 207.173 177.497C207.348 177.641 207.631 177.76 208.021 177.852L209.146 178.11C209.798 178.261 210.284 178.493 210.603 178.806C210.923 179.12 211.083 179.527 211.083 180.028C211.083 180.452 210.96 180.83 210.714 181.162C210.471 181.491 210.131 181.749 209.695 181.937C209.262 182.124 208.759 182.218 208.187 182.218C207.394 182.218 206.747 182.049 206.246 181.711C205.745 181.37 205.438 180.886 205.324 180.259L206.656 180.056C206.739 180.403 206.91 180.666 207.168 180.844C207.426 181.019 207.763 181.107 208.178 181.107C208.63 181.107 208.991 181.013 209.262 180.826C209.532 180.635 209.667 180.403 209.667 180.13C209.667 179.908 209.584 179.722 209.418 179.572C209.255 179.421 209.005 179.307 208.667 179.23L207.468 178.968C206.807 178.817 206.318 178.577 206.002 178.248C205.688 177.919 205.531 177.503 205.531 176.999C205.531 176.581 205.648 176.215 205.882 175.901C206.115 175.588 206.438 175.343 206.85 175.168C207.262 174.99 207.734 174.901 208.266 174.901C209.031 174.901 209.633 175.067 210.073 175.399C210.513 175.728 210.803 176.169 210.945 176.722ZM214.66 182.232C214.211 182.232 213.805 182.149 213.442 181.983C213.08 181.814 212.792 181.57 212.58 181.25C212.371 180.93 212.267 180.538 212.267 180.074C212.267 179.675 212.344 179.346 212.497 179.087C212.651 178.829 212.858 178.625 213.12 178.474C213.381 178.324 213.673 178.21 213.996 178.133C214.318 178.056 214.647 177.998 214.982 177.958C215.407 177.909 215.751 177.869 216.015 177.838C216.28 177.804 216.472 177.75 216.592 177.677C216.712 177.603 216.771 177.483 216.771 177.317V177.285C216.771 176.882 216.658 176.57 216.43 176.349C216.206 176.127 215.871 176.017 215.425 176.017C214.961 176.017 214.595 176.12 214.328 176.326C214.063 176.528 213.88 176.754 213.779 177.003L212.483 176.708C212.637 176.278 212.861 175.931 213.157 175.666C213.455 175.399 213.797 175.205 214.185 175.085C214.572 174.962 214.979 174.901 215.407 174.901C215.689 174.901 215.989 174.935 216.306 175.002C216.625 175.067 216.924 175.187 217.2 175.362C217.48 175.537 217.709 175.788 217.887 176.114C218.066 176.436 218.155 176.856 218.155 177.372V182.075H216.808V181.107H216.753C216.664 181.285 216.53 181.461 216.352 181.633C216.174 181.805 215.945 181.948 215.665 182.061C215.385 182.175 215.05 182.232 214.66 182.232ZM214.959 181.125C215.341 181.125 215.666 181.05 215.937 180.9C216.21 180.749 216.418 180.552 216.559 180.309C216.704 180.063 216.776 179.801 216.776 179.521V178.608C216.727 178.657 216.632 178.703 216.49 178.746C216.352 178.786 216.194 178.822 216.015 178.852C215.837 178.88 215.663 178.906 215.494 178.931C215.325 178.952 215.184 178.971 215.07 178.986C214.803 179.02 214.558 179.077 214.337 179.157C214.119 179.237 213.943 179.352 213.811 179.502C213.682 179.65 213.618 179.847 213.618 180.093C213.618 180.434 213.744 180.692 213.996 180.867C214.248 181.039 214.569 181.125 214.959 181.125ZM226.41 182.218C225.725 182.218 225.135 182.063 224.64 181.753C224.148 181.439 223.77 181.007 223.506 180.457C223.241 179.907 223.109 179.277 223.109 178.566C223.109 177.847 223.244 177.212 223.515 176.662C223.785 176.109 224.166 175.677 224.658 175.367C225.15 175.056 225.73 174.901 226.397 174.901C226.935 174.901 227.414 175.001 227.835 175.201C228.256 175.397 228.596 175.674 228.854 176.031C229.115 176.387 229.271 176.804 229.32 177.28H227.978C227.904 176.948 227.735 176.662 227.471 176.422C227.21 176.183 226.859 176.063 226.42 176.063C226.035 176.063 225.699 176.164 225.41 176.367C225.124 176.567 224.901 176.853 224.741 177.225C224.581 177.594 224.502 178.03 224.502 178.534C224.502 179.051 224.58 179.496 224.737 179.871C224.893 180.246 225.115 180.537 225.401 180.743C225.69 180.949 226.029 181.052 226.42 181.052C226.681 181.052 226.918 181.004 227.13 180.909C227.345 180.81 227.525 180.671 227.669 180.489C227.817 180.308 227.92 180.09 227.978 179.834H229.32C229.271 180.292 229.122 180.701 228.873 181.061C228.624 181.421 228.29 181.703 227.872 181.909C227.457 182.115 226.97 182.218 226.41 182.218ZM232.855 182.232C232.406 182.232 232.001 182.149 231.638 181.983C231.275 181.814 230.988 181.57 230.776 181.25C230.567 180.93 230.462 180.538 230.462 180.074C230.462 179.675 230.539 179.346 230.693 179.087C230.846 178.829 231.054 178.625 231.315 178.474C231.576 178.324 231.868 178.21 232.191 178.133C232.514 178.056 232.843 177.998 233.178 177.958C233.602 177.909 233.946 177.869 234.211 177.838C234.475 177.804 234.667 177.75 234.787 177.677C234.907 177.603 234.967 177.483 234.967 177.317V177.285C234.967 176.882 234.853 176.57 234.626 176.349C234.401 176.127 234.066 176.017 233.621 176.017C233.156 176.017 232.791 176.12 232.523 176.326C232.259 176.528 232.076 176.754 231.975 177.003L230.679 176.708C230.833 176.278 231.057 175.931 231.352 175.666C231.65 175.399 231.993 175.205 232.38 175.085C232.768 174.962 233.175 174.901 233.602 174.901C233.885 174.901 234.185 174.935 234.501 175.002C234.821 175.067 235.119 175.187 235.396 175.362C235.676 175.537 235.905 175.788 236.083 176.114C236.261 176.436 236.35 176.856 236.35 177.372V182.075H235.004V181.107H234.949C234.859 181.285 234.726 181.461 234.547 181.633C234.369 181.805 234.14 181.948 233.86 182.061C233.581 182.175 233.246 182.232 232.855 182.232ZM233.155 181.125C233.536 181.125 233.862 181.05 234.132 180.9C234.406 180.749 234.613 180.552 234.755 180.309C234.899 180.063 234.972 179.801 234.972 179.521V178.608C234.922 178.657 234.827 178.703 234.686 178.746C234.547 178.786 234.389 178.822 234.211 178.852C234.033 178.88 233.859 178.906 233.69 178.931C233.521 178.952 233.379 178.971 233.266 178.986C232.998 179.02 232.754 179.077 232.532 179.157C232.314 179.237 232.139 179.352 232.007 179.502C231.878 179.65 231.813 179.847 231.813 180.093C231.813 180.434 231.939 180.692 232.191 180.867C232.443 181.039 232.765 181.125 233.155 181.125ZM238.186 182.075V174.993H239.519V176.118H239.593C239.722 175.737 239.949 175.437 240.275 175.219C240.604 174.998 240.976 174.887 241.391 174.887C241.477 174.887 241.579 174.89 241.695 174.896C241.815 174.902 241.909 174.91 241.977 174.919V176.238C241.921 176.223 241.823 176.206 241.682 176.187C241.54 176.166 241.399 176.155 241.257 176.155C240.931 176.155 240.641 176.224 240.386 176.362C240.134 176.498 239.934 176.687 239.786 176.93C239.639 177.169 239.565 177.443 239.565 177.75V182.075H238.186ZM245.567 182.214C244.996 182.214 244.485 182.068 244.037 181.776C243.591 181.481 243.24 181.061 242.985 180.517C242.733 179.97 242.607 179.313 242.607 178.548C242.607 177.783 242.735 177.128 242.99 176.584C243.248 176.04 243.602 175.623 244.05 175.334C244.499 175.045 245.008 174.901 245.577 174.901C246.016 174.901 246.37 174.975 246.637 175.122C246.908 175.267 247.117 175.436 247.264 175.629C247.415 175.823 247.532 175.994 247.615 176.141H247.698V172.632H249.076V182.075H247.73V180.973H247.615C247.532 181.124 247.412 181.296 247.255 181.49C247.101 181.683 246.889 181.852 246.619 181.997C246.348 182.141 245.998 182.214 245.567 182.214ZM245.872 181.038C246.268 181.038 246.603 180.933 246.877 180.724C247.153 180.512 247.362 180.219 247.504 179.844C247.648 179.469 247.721 179.032 247.721 178.534C247.721 178.042 247.65 177.612 247.508 177.243C247.367 176.874 247.16 176.587 246.886 176.381C246.612 176.175 246.274 176.072 245.872 176.072C245.457 176.072 245.111 176.18 244.834 176.395C244.558 176.61 244.349 176.903 244.207 177.275C244.069 177.647 244 178.067 244 178.534C244 179.008 244.07 179.433 244.212 179.811C244.353 180.189 244.562 180.489 244.839 180.711C245.119 180.929 245.463 181.038 245.872 181.038Z" fill="#5A6475"/>
<g clip-path="url(#clip1_1039_1158)">
<path d="M483.216 140.214H486.462V143.46" stroke="#2C3E50" stroke-width="1.21726" stroke-linecap="round" stroke-linejoin="round"/>
<path d="M481.593 145.083L486.462 140.214" stroke="#2C3E50" stroke-width="1.21726" stroke-linecap="round" stroke-linejoin="round"/>
<path d="M476.724 153.198H473.478V149.952" stroke="#2C3E50" stroke-width="1.21726" stroke-linecap="round" stroke-linejoin="round"/>
<path d="M473.478 153.198L478.347 148.329" stroke="#2C3E50" stroke-width="1.21726" stroke-linecap="round" stroke-linejoin="round"/>
<path d="M483.216 153.198H486.462V149.952" stroke="#2C3E50" stroke-width="1.21726" stroke-linecap="round" stroke-linejoin="round"/>
<path d="M481.593 148.329L486.462 153.198" stroke="#2C3E50" stroke-width="1.21726" stroke-linecap="round" stroke-linejoin="round"/>
<path d="M476.724 140.214H473.478V143.46" stroke="#2C3E50" stroke-width="1.21726" stroke-linecap="round" stroke-linejoin="round"/>
<path d="M473.478 140.214L478.347 145.083" stroke="#2C3E50" stroke-width="1.21726" stroke-linecap="round" stroke-linejoin="round"/>
</g>
<path d="M139.314 246.905V226.731L134.916 229.392V226.163L139.314 223.533H142.252V246.905H139.314ZM147.778 246.889L147.795 244.292L158.166 234.959C159.031 234.18 159.61 233.445 159.902 232.752C160.205 232.049 160.357 231.329 160.357 230.593C160.357 229.695 160.151 228.884 159.74 228.159C159.329 227.434 158.766 226.861 158.052 226.439C157.349 226.017 156.548 225.806 155.65 225.806C154.719 225.806 153.892 226.027 153.167 226.471C152.442 226.904 151.868 227.483 151.446 228.208C151.035 228.933 150.835 229.722 150.846 230.577H147.892C147.892 229.106 148.233 227.807 148.914 226.682C149.596 225.546 150.521 224.659 151.69 224.02C152.869 223.371 154.205 223.046 155.699 223.046C157.148 223.046 158.447 223.382 159.594 224.053C160.741 224.713 161.644 225.616 162.304 226.763C162.975 227.899 163.311 229.187 163.311 230.626C163.311 231.643 163.181 232.525 162.921 233.271C162.672 234.018 162.283 234.711 161.752 235.349C161.222 235.976 160.557 236.647 159.756 237.361L151.138 245.103L150.765 244.129H163.311V246.889H147.778ZM168.427 246.905L176.834 226.309H166.22V223.533H179.934V226.309L171.543 246.905H168.427ZM182.739 246.905V243.724H185.92V246.905H182.739ZM191.143 246.905V226.731L186.745 229.392V226.163L191.143 223.533H194.081V246.905H191.143ZM210.351 246.905V242.604H199.607V239.861L207.316 223.533H210.595L202.886 239.861H210.351V233.288H213.273V239.861H215.707V242.604H213.273V246.905H210.351Z" fill="#121417"/>
<path d="M234.005 229.462H235.434V235.673C235.434 236.333 235.279 236.919 234.968 237.429C234.658 237.937 234.221 238.336 233.659 238.628C233.096 238.917 232.437 239.062 231.681 239.062C230.928 239.062 230.27 238.917 229.707 238.628C229.145 238.336 228.708 237.937 228.398 237.429C228.088 236.919 227.932 236.333 227.932 235.673V229.462H229.357V235.557C229.357 235.985 229.451 236.364 229.638 236.696C229.829 237.028 230.098 237.289 230.445 237.48C230.793 237.668 231.204 237.761 231.681 237.761C232.16 237.761 232.574 237.668 232.921 237.48C233.272 237.289 233.539 237.028 233.724 236.696C233.911 236.364 234.005 235.985 234.005 235.557V229.462ZM242.656 231.942C242.607 231.506 242.404 231.168 242.047 230.928C241.691 230.685 241.242 230.564 240.701 230.564C240.314 230.564 239.978 230.625 239.696 230.748C239.413 230.868 239.193 231.034 239.036 231.246C238.883 231.455 238.806 231.693 238.806 231.961C238.806 232.185 238.858 232.379 238.963 232.542C239.07 232.705 239.21 232.842 239.382 232.952C239.557 233.06 239.745 233.15 239.945 233.224C240.144 233.295 240.337 233.353 240.521 233.399L241.443 233.639C241.744 233.713 242.053 233.813 242.37 233.939C242.687 234.065 242.98 234.231 243.251 234.437C243.521 234.643 243.739 234.898 243.905 235.202C244.074 235.507 244.159 235.871 244.159 236.295C244.159 236.83 244.021 237.305 243.744 237.72C243.47 238.135 243.072 238.462 242.55 238.702C242.03 238.942 241.402 239.062 240.664 239.062C239.957 239.062 239.345 238.949 238.829 238.725C238.312 238.501 237.908 238.182 237.616 237.771C237.324 237.356 237.163 236.864 237.132 236.295H238.561C238.589 236.636 238.7 236.921 238.893 237.148C239.09 237.372 239.341 237.54 239.645 237.651C239.952 237.758 240.289 237.812 240.655 237.812C241.057 237.812 241.416 237.749 241.729 237.623C242.046 237.494 242.295 237.316 242.476 237.088C242.657 236.858 242.748 236.589 242.748 236.281C242.748 236.001 242.668 235.772 242.508 235.594C242.352 235.416 242.138 235.268 241.867 235.152C241.6 235.035 241.297 234.932 240.959 234.843L239.843 234.538C239.087 234.332 238.488 234.03 238.045 233.63C237.605 233.23 237.386 232.702 237.386 232.044C237.386 231.5 237.533 231.025 237.828 230.619C238.123 230.213 238.523 229.898 239.027 229.674C239.531 229.446 240.1 229.333 240.733 229.333C241.373 229.333 241.937 229.445 242.425 229.669C242.917 229.894 243.304 230.203 243.587 230.596C243.87 230.986 244.018 231.435 244.03 231.942H242.656ZM248.919 238.905H245.862V229.462H249.015C249.941 229.462 250.735 229.651 251.399 230.029C252.063 230.404 252.572 230.943 252.925 231.647C253.282 232.348 253.46 233.189 253.46 234.169C253.46 235.153 253.28 235.998 252.921 236.705C252.564 237.412 252.048 237.956 251.371 238.338C250.695 238.716 249.878 238.905 248.919 238.905ZM247.286 237.66H248.84C249.559 237.66 250.157 237.525 250.634 237.254C251.11 236.981 251.467 236.586 251.703 236.069C251.94 235.55 252.059 234.916 252.059 234.169C252.059 233.429 251.94 232.8 251.703 232.284C251.47 231.767 251.121 231.375 250.657 231.108C250.193 230.84 249.616 230.707 248.928 230.707H247.286V237.66Z" fill="#121417"/>
<path d="M139.954 269.561L137.385 276.643H135.91L133.337 269.561H134.817L136.611 275.011H136.685L138.474 269.561H139.954ZM146.556 271.29L145.307 271.511C145.255 271.351 145.172 271.199 145.058 271.055C144.947 270.91 144.797 270.792 144.606 270.7C144.415 270.607 144.177 270.561 143.891 270.561C143.501 270.561 143.175 270.649 142.914 270.824C142.653 270.996 142.522 271.219 142.522 271.493C142.522 271.729 142.61 271.92 142.785 272.064C142.96 272.209 143.243 272.327 143.633 272.419L144.758 272.678C145.41 272.828 145.896 273.06 146.215 273.374C146.535 273.687 146.695 274.095 146.695 274.596C146.695 275.02 146.572 275.398 146.326 275.73C146.083 276.059 145.743 276.317 145.307 276.505C144.873 276.692 144.371 276.786 143.799 276.786C143.006 276.786 142.359 276.617 141.858 276.279C141.357 275.937 141.05 275.453 140.936 274.826L142.268 274.623C142.351 274.971 142.522 275.234 142.78 275.412C143.038 275.587 143.375 275.675 143.79 275.675C144.242 275.675 144.603 275.581 144.873 275.393C145.144 275.203 145.279 274.971 145.279 274.697C145.279 274.476 145.196 274.29 145.03 274.139C144.867 273.989 144.617 273.875 144.279 273.798L143.08 273.535C142.419 273.385 141.93 273.145 141.614 272.816C141.3 272.487 141.143 272.07 141.143 271.566C141.143 271.148 141.26 270.783 141.494 270.469C141.727 270.155 142.05 269.911 142.462 269.736C142.874 269.558 143.346 269.468 143.878 269.468C144.643 269.468 145.245 269.634 145.685 269.966C146.125 270.295 146.415 270.736 146.556 271.29ZM153.025 267.2V276.643H151.647V267.2H153.025ZM156.941 276.8C156.492 276.8 156.087 276.717 155.724 276.551C155.361 276.382 155.074 276.137 154.862 275.818C154.653 275.498 154.548 275.106 154.548 274.642C154.548 274.242 154.625 273.913 154.779 273.655C154.932 273.397 155.14 273.192 155.401 273.042C155.662 272.891 155.954 272.777 156.277 272.701C156.6 272.624 156.929 272.565 157.264 272.525C157.688 272.476 158.032 272.436 158.297 272.406C158.561 272.372 158.753 272.318 158.873 272.244C158.993 272.17 159.053 272.05 159.053 271.884V271.852C159.053 271.45 158.939 271.138 158.712 270.916C158.487 270.695 158.152 270.584 157.707 270.584C157.242 270.584 156.877 270.687 156.609 270.893C156.345 271.096 156.162 271.322 156.061 271.571L154.765 271.276C154.919 270.846 155.143 270.498 155.438 270.234C155.736 269.966 156.079 269.773 156.466 269.653C156.854 269.53 157.261 269.468 157.688 269.468C157.971 269.468 158.271 269.502 158.587 269.57C158.907 269.634 159.205 269.754 159.482 269.929C159.761 270.105 159.99 270.355 160.169 270.681C160.347 271.004 160.436 271.423 160.436 271.94V276.643H159.09V275.675H159.034C158.945 275.853 158.812 276.028 158.633 276.2C158.455 276.372 158.226 276.515 157.946 276.629C157.667 276.743 157.332 276.8 156.941 276.8ZM157.241 275.693C157.622 275.693 157.948 275.618 158.218 275.467C158.492 275.316 158.699 275.12 158.841 274.877C158.985 274.631 159.058 274.368 159.058 274.088V273.176C159.008 273.225 158.913 273.271 158.772 273.314C158.633 273.354 158.475 273.389 158.297 273.42C158.118 273.448 157.945 273.474 157.776 273.498C157.607 273.52 157.465 273.538 157.352 273.554C157.084 273.587 156.84 273.644 156.618 273.724C156.4 273.804 156.225 273.919 156.093 274.07C155.964 274.218 155.899 274.414 155.899 274.66C155.899 275.001 156.025 275.26 156.277 275.435C156.529 275.607 156.85 275.693 157.241 275.693ZM167.58 271.29L166.33 271.511C166.278 271.351 166.195 271.199 166.081 271.055C165.97 270.91 165.82 270.792 165.629 270.7C165.439 270.607 165.2 270.561 164.914 270.561C164.524 270.561 164.198 270.649 163.937 270.824C163.676 270.996 163.545 271.219 163.545 271.493C163.545 271.729 163.633 271.92 163.808 272.064C163.983 272.209 164.266 272.327 164.656 272.419L165.781 272.678C166.433 272.828 166.919 273.06 167.238 273.374C167.558 273.687 167.718 274.095 167.718 274.596C167.718 275.02 167.595 275.398 167.349 275.73C167.106 276.059 166.766 276.317 166.33 276.505C165.897 276.692 165.394 276.786 164.822 276.786C164.029 276.786 163.382 276.617 162.881 276.279C162.38 275.937 162.073 275.453 161.959 274.826L163.291 274.623C163.374 274.971 163.545 275.234 163.803 275.412C164.061 275.587 164.398 275.675 164.813 275.675C165.265 275.675 165.626 275.581 165.897 275.393C166.167 275.203 166.302 274.971 166.302 274.697C166.302 274.476 166.219 274.29 166.053 274.139C165.89 273.989 165.64 273.875 165.302 273.798L164.103 273.535C163.442 273.385 162.953 273.145 162.637 272.816C162.323 272.487 162.166 272.07 162.166 271.566C162.166 271.148 162.283 270.783 162.517 270.469C162.75 270.155 163.073 269.911 163.485 269.736C163.897 269.558 164.369 269.468 164.901 269.468C165.666 269.468 166.269 269.634 166.708 269.966C167.148 270.295 167.438 270.736 167.58 271.29ZM172.54 269.561V270.667H168.671V269.561H172.54ZM169.709 267.864H171.087V274.563C171.087 274.831 171.127 275.032 171.207 275.167C171.287 275.3 171.39 275.39 171.516 275.439C171.645 275.486 171.785 275.509 171.936 275.509C172.046 275.509 172.143 275.501 172.226 275.486C172.309 275.47 172.374 275.458 172.42 275.449L172.669 276.588C172.589 276.618 172.475 276.649 172.328 276.68C172.18 276.714 171.996 276.732 171.774 276.735C171.412 276.741 171.073 276.677 170.76 276.541C170.446 276.406 170.193 276.197 169.999 275.914C169.805 275.632 169.709 275.277 169.709 274.849V267.864ZM179.036 276.643L176.952 269.561H178.377L179.765 274.762H179.834L181.226 269.561H182.651L184.034 274.739H184.104L185.482 269.561H186.907L184.828 276.643H183.421L181.983 271.529H181.877L180.438 276.643H179.036ZM191.052 276.786C190.354 276.786 189.753 276.637 189.249 276.339C188.748 276.037 188.361 275.615 188.087 275.071C187.817 274.523 187.682 273.883 187.682 273.148C187.682 272.422 187.817 271.783 188.087 271.23C188.361 270.676 188.742 270.245 189.231 269.934C189.723 269.624 190.298 269.468 190.955 269.468C191.355 269.468 191.742 269.535 192.117 269.667C192.492 269.799 192.829 270.006 193.127 270.289C193.425 270.572 193.66 270.939 193.833 271.391C194.005 271.84 194.091 272.386 194.091 273.028V273.517H188.461V272.484H192.74C192.74 272.121 192.666 271.8 192.518 271.52C192.371 271.237 192.163 271.015 191.896 270.852C191.632 270.689 191.321 270.607 190.965 270.607C190.577 270.607 190.239 270.703 189.95 270.893C189.664 271.081 189.443 271.327 189.286 271.631C189.133 271.932 189.056 272.26 189.056 272.613V273.42C189.056 273.893 189.139 274.296 189.305 274.628C189.474 274.96 189.709 275.214 190.01 275.389C190.311 275.561 190.663 275.647 191.066 275.647C191.327 275.647 191.566 275.61 191.781 275.536C191.996 275.459 192.182 275.346 192.339 275.195C192.495 275.044 192.615 274.858 192.698 274.637L194.003 274.872C193.899 275.257 193.711 275.593 193.441 275.882C193.173 276.168 192.837 276.391 192.431 276.551C192.028 276.707 191.569 276.786 191.052 276.786ZM198.673 276.786C197.975 276.786 197.374 276.637 196.87 276.339C196.369 276.037 195.982 275.615 195.708 275.071C195.437 274.523 195.302 273.883 195.302 273.148C195.302 272.422 195.437 271.783 195.708 271.23C195.982 270.676 196.363 270.245 196.851 269.934C197.343 269.624 197.918 269.468 198.576 269.468C198.976 269.468 199.363 269.535 199.738 269.667C200.113 269.799 200.449 270.006 200.748 270.289C201.046 270.572 201.281 270.939 201.453 271.391C201.625 271.84 201.711 272.386 201.711 273.028V273.517H196.081V272.484H200.36C200.36 272.121 200.287 271.8 200.139 271.52C199.991 271.237 199.784 271.015 199.517 270.852C199.252 270.689 198.942 270.607 198.585 270.607C198.198 270.607 197.86 270.703 197.571 270.893C197.285 271.081 197.064 271.327 196.907 271.631C196.753 271.932 196.676 272.26 196.676 272.613V273.42C196.676 273.893 196.759 274.296 196.925 274.628C197.094 274.96 197.329 275.214 197.631 275.389C197.932 275.561 198.284 275.647 198.687 275.647C198.948 275.647 199.186 275.61 199.401 275.536C199.616 275.459 199.802 275.346 199.959 275.195C200.116 275.044 200.236 274.858 200.319 274.637L201.624 274.872C201.519 275.257 201.332 275.593 201.061 275.882C200.794 276.168 200.457 276.391 200.051 276.551C199.649 276.707 199.189 276.786 198.673 276.786ZM204.509 274.241L204.5 272.558H204.739L207.561 269.561H209.212L205.994 272.973H205.777L204.509 274.241ZM203.241 276.643V267.2H204.62V276.643H203.241ZM207.713 276.643L205.177 273.277L206.127 272.313L209.406 276.643H207.713Z" fill="#5A6475"/>
<path d="M241.031 276.643V267.2H242.456V275.416H246.735V276.643H241.031ZM250.311 276.8C249.862 276.8 249.456 276.717 249.094 276.551C248.731 276.382 248.443 276.137 248.231 275.818C248.022 275.498 247.918 275.106 247.918 274.642C247.918 274.242 247.995 273.913 248.148 273.655C248.302 273.397 248.51 273.192 248.771 273.042C249.032 272.891 249.324 272.777 249.647 272.701C249.97 272.624 250.299 272.565 250.634 272.525C251.058 272.476 251.402 272.436 251.666 272.406C251.931 272.372 252.123 272.318 252.243 272.244C252.363 272.17 252.423 272.05 252.423 271.884V271.852C252.423 271.45 252.309 271.138 252.081 270.916C251.857 270.695 251.522 270.584 251.076 270.584C250.612 270.584 250.246 270.687 249.979 270.893C249.714 271.096 249.532 271.322 249.43 271.571L248.134 271.276C248.288 270.846 248.513 270.498 248.808 270.234C249.106 269.966 249.449 269.773 249.836 269.653C250.223 269.53 250.63 269.468 251.058 269.468C251.341 269.468 251.64 269.502 251.957 269.57C252.277 269.634 252.575 269.754 252.851 269.929C253.131 270.105 253.36 270.355 253.538 270.681C253.717 271.004 253.806 271.423 253.806 271.94V276.643H252.459V275.675H252.404C252.315 275.853 252.181 276.028 252.003 276.2C251.825 276.372 251.596 276.515 251.316 276.629C251.036 276.743 250.701 276.8 250.311 276.8ZM250.611 275.693C250.992 275.693 251.318 275.618 251.588 275.467C251.862 275.316 252.069 275.12 252.21 274.877C252.355 274.631 252.427 274.368 252.427 274.088V273.176C252.378 273.225 252.283 273.271 252.141 273.314C252.003 273.354 251.845 273.389 251.666 273.42C251.488 273.448 251.314 273.474 251.145 273.498C250.976 273.52 250.835 273.538 250.721 273.554C250.454 273.587 250.209 273.644 249.988 273.724C249.77 273.804 249.595 273.919 249.462 274.07C249.333 274.218 249.269 274.414 249.269 274.66C249.269 275.001 249.395 275.26 249.647 275.435C249.899 275.607 250.22 275.693 250.611 275.693ZM260.949 271.29L259.7 271.511C259.647 271.351 259.564 271.199 259.451 271.055C259.34 270.91 259.189 270.792 258.999 270.7C258.808 270.607 258.57 270.561 258.284 270.561C257.894 270.561 257.568 270.649 257.307 270.824C257.045 270.996 256.915 271.219 256.915 271.493C256.915 271.729 257.002 271.92 257.177 272.064C257.353 272.209 257.636 272.327 258.026 272.419L259.151 272.678C259.803 272.828 260.288 273.06 260.608 273.374C260.928 273.687 261.087 274.095 261.087 274.596C261.087 275.02 260.965 275.398 260.719 275.73C260.476 276.059 260.136 276.317 259.7 276.505C259.266 276.692 258.764 276.786 258.192 276.786C257.399 276.786 256.752 276.617 256.251 276.279C255.75 275.937 255.442 275.453 255.329 274.826L256.661 274.623C256.744 274.971 256.915 275.234 257.173 275.412C257.431 275.587 257.768 275.675 258.183 275.675C258.635 275.675 258.996 275.581 259.266 275.393C259.537 275.203 259.672 274.971 259.672 274.697C259.672 274.476 259.589 274.29 259.423 274.139C259.26 273.989 259.01 273.875 258.671 273.798L257.473 273.535C256.812 273.385 256.323 273.145 256.006 272.816C255.693 272.487 255.536 272.07 255.536 271.566C255.536 271.148 255.653 270.783 255.886 270.469C256.12 270.155 256.443 269.911 256.855 269.736C257.267 269.558 257.738 269.468 258.27 269.468C259.036 269.468 259.638 269.634 260.078 269.966C260.517 270.295 260.808 270.736 260.949 271.29ZM265.909 269.561V270.667H262.041V269.561H265.909ZM263.078 267.864H264.457V274.563C264.457 274.831 264.497 275.032 264.577 275.167C264.657 275.3 264.76 275.39 264.886 275.439C265.015 275.486 265.155 275.509 265.305 275.509C265.416 275.509 265.513 275.501 265.596 275.486C265.679 275.47 265.743 275.458 265.789 275.449L266.038 276.588C265.958 276.618 265.845 276.649 265.697 276.68C265.55 276.714 265.365 276.732 265.144 276.735C264.781 276.741 264.443 276.677 264.129 276.541C263.816 276.406 263.562 276.197 263.369 275.914C263.175 275.632 263.078 275.277 263.078 274.849V267.864ZM270.981 276.643V267.2H274.347C275.082 267.2 275.69 267.334 276.173 267.601C276.656 267.868 277.017 268.234 277.257 268.698C277.496 269.159 277.616 269.679 277.616 270.257C277.616 270.838 277.495 271.36 277.252 271.825C277.012 272.286 276.649 272.651 276.164 272.922C275.681 273.189 275.074 273.323 274.343 273.323H272.028V272.115H274.213C274.678 272.115 275.054 272.035 275.343 271.875C275.632 271.712 275.844 271.491 275.979 271.211C276.115 270.932 276.182 270.613 276.182 270.257C276.182 269.9 276.115 269.584 275.979 269.307C275.844 269.03 275.63 268.814 275.338 268.657C275.05 268.5 274.668 268.422 274.195 268.422H272.406V276.643H270.981ZM283.662 273.706V269.561H285.045V276.643H283.69V275.416H283.616C283.453 275.794 283.192 276.11 282.832 276.362C282.476 276.611 282.031 276.735 281.5 276.735C281.045 276.735 280.642 276.635 280.292 276.435C279.944 276.233 279.671 275.933 279.471 275.536C279.274 275.14 279.176 274.649 279.176 274.065V269.561H280.554V273.899C280.554 274.382 280.688 274.766 280.956 275.052C281.223 275.338 281.57 275.481 281.998 275.481C282.256 275.481 282.513 275.416 282.768 275.287C283.026 275.158 283.24 274.963 283.409 274.702C283.581 274.44 283.665 274.108 283.662 273.706ZM286.898 276.643V269.561H288.23V270.686H288.304C288.433 270.305 288.661 270.005 288.987 269.787C289.315 269.565 289.687 269.455 290.102 269.455C290.188 269.455 290.29 269.458 290.407 269.464C290.527 269.47 290.62 269.478 290.688 269.487V270.806C290.633 270.79 290.534 270.773 290.393 270.755C290.251 270.733 290.11 270.723 289.969 270.723C289.643 270.723 289.352 270.792 289.097 270.93C288.845 271.065 288.645 271.254 288.498 271.497C288.35 271.737 288.276 272.011 288.276 272.318V276.643H286.898ZM294.611 276.786C293.925 276.786 293.335 276.631 292.84 276.32C292.348 276.007 291.97 275.575 291.706 275.024C291.441 274.474 291.309 273.844 291.309 273.134C291.309 272.415 291.444 271.78 291.715 271.23C291.986 270.676 292.367 270.245 292.858 269.934C293.35 269.624 293.93 269.468 294.597 269.468C295.135 269.468 295.614 269.568 296.035 269.768C296.456 269.965 296.796 270.241 297.054 270.598C297.316 270.955 297.471 271.371 297.52 271.848H296.178C296.105 271.516 295.935 271.23 295.671 270.99C295.41 270.75 295.059 270.63 294.62 270.63C294.236 270.63 293.899 270.732 293.61 270.935C293.324 271.134 293.101 271.42 292.941 271.792C292.782 272.161 292.702 272.598 292.702 273.102C292.702 273.618 292.78 274.064 292.937 274.439C293.094 274.814 293.315 275.104 293.601 275.31C293.89 275.516 294.229 275.619 294.62 275.619C294.881 275.619 295.118 275.572 295.33 275.476C295.545 275.378 295.725 275.238 295.869 275.057C296.017 274.875 296.12 274.657 296.178 274.402H297.52C297.471 274.86 297.322 275.269 297.073 275.628C296.824 275.988 296.49 276.271 296.072 276.477C295.657 276.683 295.17 276.786 294.611 276.786ZM300.373 272.438V276.643H298.994V267.2H300.355V270.713H300.442C300.608 270.332 300.862 270.029 301.203 269.805C301.544 269.581 301.99 269.468 302.54 269.468C303.026 269.468 303.45 269.568 303.813 269.768C304.178 269.968 304.461 270.266 304.661 270.663C304.864 271.056 304.965 271.548 304.965 272.138V276.643H303.587V272.304C303.587 271.785 303.453 271.382 303.186 271.096C302.918 270.807 302.546 270.663 302.07 270.663C301.744 270.663 301.452 270.732 301.194 270.87C300.939 271.008 300.737 271.211 300.59 271.479C300.445 271.743 300.373 272.063 300.373 272.438ZM308.866 276.8C308.417 276.8 308.012 276.717 307.649 276.551C307.286 276.382 306.999 276.137 306.787 275.818C306.578 275.498 306.473 275.106 306.473 274.642C306.473 274.242 306.55 273.913 306.704 273.655C306.857 273.397 307.065 273.192 307.326 273.042C307.587 272.891 307.879 272.777 308.202 272.701C308.525 272.624 308.854 272.565 309.189 272.525C309.613 272.476 309.957 272.436 310.222 272.406C310.486 272.372 310.678 272.318 310.798 272.244C310.918 272.17 310.978 272.05 310.978 271.884V271.852C310.978 271.45 310.864 271.138 310.637 270.916C310.412 270.695 310.077 270.584 309.632 270.584C309.167 270.584 308.802 270.687 308.534 270.893C308.27 271.096 308.087 271.322 307.986 271.571L306.69 271.276C306.844 270.846 307.068 270.498 307.363 270.234C307.661 269.966 308.004 269.773 308.391 269.653C308.779 269.53 309.186 269.468 309.613 269.468C309.896 269.468 310.196 269.502 310.512 269.57C310.832 269.634 311.13 269.754 311.407 269.929C311.686 270.105 311.915 270.355 312.094 270.681C312.272 271.004 312.361 271.423 312.361 271.94V276.643H311.015V275.675H310.959C310.87 275.853 310.737 276.028 310.558 276.2C310.38 276.372 310.151 276.515 309.871 276.629C309.592 276.743 309.257 276.8 308.866 276.8ZM309.166 275.693C309.547 275.693 309.873 275.618 310.143 275.467C310.417 275.316 310.624 275.12 310.766 274.877C310.91 274.631 310.983 274.368 310.983 274.088V273.176C310.933 273.225 310.838 273.271 310.697 273.314C310.558 273.354 310.4 273.389 310.222 273.42C310.043 273.448 309.87 273.474 309.701 273.498C309.532 273.52 309.39 273.538 309.277 273.554C309.009 273.587 308.765 273.644 308.543 273.724C308.325 273.804 308.15 273.919 308.018 274.07C307.889 274.218 307.824 274.414 307.824 274.66C307.824 275.001 307.95 275.26 308.202 275.435C308.454 275.607 308.775 275.693 309.166 275.693ZM319.505 271.29L318.255 271.511C318.203 271.351 318.12 271.199 318.006 271.055C317.895 270.91 317.745 270.792 317.554 270.7C317.364 270.607 317.125 270.561 316.839 270.561C316.449 270.561 316.123 270.649 315.862 270.824C315.601 270.996 315.47 271.219 315.47 271.493C315.47 271.729 315.558 271.92 315.733 272.064C315.908 272.209 316.191 272.327 316.581 272.419L317.706 272.678C318.358 272.828 318.844 273.06 319.163 273.374C319.483 273.687 319.643 274.095 319.643 274.596C319.643 275.02 319.52 275.398 319.274 275.73C319.031 276.059 318.691 276.317 318.255 276.505C317.822 276.692 317.319 276.786 316.747 276.786C315.954 276.786 315.307 276.617 314.806 276.279C314.305 275.937 313.998 275.453 313.884 274.826L315.216 274.623C315.299 274.971 315.47 275.234 315.728 275.412C315.986 275.587 316.323 275.675 316.738 275.675C317.19 275.675 317.551 275.581 317.822 275.393C318.092 275.203 318.227 274.971 318.227 274.697C318.227 274.476 318.144 274.29 317.978 274.139C317.815 273.989 317.565 273.875 317.227 273.798L316.028 273.535C315.367 273.385 314.878 273.145 314.562 272.816C314.248 272.487 314.091 272.07 314.091 271.566C314.091 271.148 314.208 270.783 314.442 270.469C314.675 270.155 314.998 269.911 315.41 269.736C315.822 269.558 316.294 269.468 316.826 269.468C317.591 269.468 318.194 269.634 318.633 269.966C319.073 270.295 319.363 270.736 319.505 271.29ZM324.211 276.786C323.513 276.786 322.912 276.637 322.408 276.339C321.907 276.037 321.52 275.615 321.246 275.071C320.976 274.523 320.841 273.883 320.841 273.148C320.841 272.422 320.976 271.783 321.246 271.23C321.52 270.676 321.901 270.245 322.39 269.934C322.882 269.624 323.456 269.468 324.114 269.468C324.514 269.468 324.901 269.535 325.276 269.667C325.651 269.799 325.988 270.006 326.286 270.289C326.584 270.572 326.819 270.939 326.991 271.391C327.164 271.84 327.25 272.386 327.25 273.028V273.517H321.62V272.484H325.899C325.899 272.121 325.825 271.8 325.677 271.52C325.53 271.237 325.322 271.015 325.055 270.852C324.79 270.689 324.48 270.607 324.123 270.607C323.736 270.607 323.398 270.703 323.109 270.893C322.823 271.081 322.602 271.327 322.445 271.631C322.291 271.932 322.215 272.26 322.215 272.613V273.42C322.215 273.893 322.298 274.296 322.464 274.628C322.633 274.96 322.868 275.214 323.169 275.389C323.47 275.561 323.822 275.647 324.225 275.647C324.486 275.647 324.724 275.61 324.94 275.536C325.155 275.459 325.341 275.346 325.497 275.195C325.654 275.044 325.774 274.858 325.857 274.637L327.162 274.872C327.057 275.257 326.87 275.593 326.599 275.882C326.332 276.168 325.995 276.391 325.59 276.551C325.187 276.707 324.727 276.786 324.211 276.786ZM331.43 276.781C330.859 276.781 330.348 276.635 329.9 276.343C329.454 276.048 329.104 275.628 328.848 275.084C328.596 274.537 328.47 273.881 328.47 273.116C328.47 272.35 328.598 271.695 328.853 271.151C329.111 270.607 329.465 270.191 329.914 269.902C330.362 269.613 330.871 269.468 331.44 269.468C331.879 269.468 332.233 269.542 332.5 269.69C332.771 269.834 332.98 270.003 333.127 270.197C333.278 270.391 333.395 270.561 333.478 270.709H333.561V267.2H334.939V276.643H333.593V275.541H333.478C333.395 275.692 333.275 275.864 333.118 276.057C332.964 276.251 332.752 276.42 332.482 276.564C332.211 276.709 331.861 276.781 331.43 276.781ZM331.735 275.605C332.131 275.605 332.466 275.501 332.74 275.292C333.017 275.08 333.226 274.786 333.367 274.411C333.512 274.036 333.584 273.6 333.584 273.102C333.584 272.61 333.513 272.18 333.372 271.811C333.23 271.442 333.023 271.154 332.749 270.948C332.476 270.743 332.137 270.64 331.735 270.64C331.32 270.64 330.974 270.747 330.697 270.962C330.421 271.178 330.212 271.471 330.07 271.843C329.932 272.215 329.863 272.635 329.863 273.102C329.863 273.575 329.933 274.001 330.075 274.379C330.216 274.757 330.425 275.057 330.702 275.278C330.982 275.496 331.326 275.605 331.735 275.605ZM340.744 271.921C340.744 270.766 340.897 269.702 341.201 268.731C341.505 267.759 341.949 266.863 342.533 266.043H343.797C343.569 266.347 343.357 266.72 343.16 267.163C342.964 267.606 342.792 268.091 342.644 268.62C342.496 269.146 342.381 269.691 342.298 270.257C342.215 270.819 342.174 271.374 342.174 271.921C342.174 272.653 342.246 273.394 342.39 274.144C342.535 274.894 342.73 275.59 342.976 276.233C343.222 276.875 343.496 277.399 343.797 277.805H342.533C341.949 276.984 341.505 276.088 341.201 275.117C340.897 274.145 340.744 273.08 340.744 271.921ZM348.797 276.643V267.2H354.653V268.426H350.222V271.304H354.233V272.525H350.222V276.643H348.797ZM358.827 276.786C358.129 276.786 357.528 276.637 357.024 276.339C356.523 276.037 356.136 275.615 355.862 275.071C355.592 274.523 355.456 273.883 355.456 273.148C355.456 272.422 355.592 271.783 355.862 271.23C356.136 270.676 356.517 270.245 357.006 269.934C357.497 269.624 358.072 269.468 358.73 269.468C359.13 269.468 359.517 269.535 359.892 269.667C360.267 269.799 360.604 270.006 360.902 270.289C361.2 270.572 361.435 270.939 361.607 271.391C361.779 271.84 361.865 272.386 361.865 273.028V273.517H356.236V272.484H360.515C360.515 272.121 360.441 271.8 360.293 271.52C360.146 271.237 359.938 271.015 359.671 270.852C359.406 270.689 359.096 270.607 358.739 270.607C358.352 270.607 358.014 270.703 357.725 270.893C357.439 271.081 357.218 271.327 357.061 271.631C356.907 271.932 356.83 272.26 356.83 272.613V273.42C356.83 273.893 356.913 274.296 357.079 274.628C357.248 274.96 357.484 275.214 357.785 275.389C358.086 275.561 358.438 275.647 358.841 275.647C359.102 275.647 359.34 275.61 359.555 275.536C359.771 275.459 359.957 275.346 360.113 275.195C360.27 275.044 360.39 274.858 360.473 274.637L361.778 274.872C361.673 275.257 361.486 275.593 361.215 275.882C360.948 276.168 360.611 276.391 360.206 276.551C359.803 276.707 359.343 276.786 358.827 276.786ZM363.506 276.643V267.2H364.884V270.709H364.967C365.047 270.561 365.163 270.391 365.313 270.197C365.464 270.003 365.673 269.834 365.94 269.69C366.208 269.542 366.561 269.468 367.001 269.468C367.573 269.468 368.083 269.613 368.532 269.902C368.98 270.191 369.332 270.607 369.587 271.151C369.846 271.695 369.975 272.35 369.975 273.116C369.975 273.881 369.847 274.537 369.592 275.084C369.337 275.628 368.987 276.048 368.541 276.343C368.095 276.635 367.586 276.781 367.015 276.781C366.584 276.781 366.232 276.709 365.959 276.564C365.688 276.42 365.476 276.251 365.322 276.057C365.169 275.864 365.05 275.692 364.967 275.541H364.852V276.643H363.506ZM364.857 273.102C364.857 273.6 364.929 274.036 365.073 274.411C365.218 274.786 365.427 275.08 365.701 275.292C365.974 275.501 366.309 275.605 366.706 275.605C367.118 275.605 367.462 275.496 367.739 275.278C368.015 275.057 368.224 274.757 368.366 274.379C368.51 274.001 368.582 273.575 368.582 273.102C368.582 272.635 368.512 272.215 368.37 271.843C368.232 271.471 368.023 271.178 367.743 270.962C367.466 270.747 367.121 270.64 366.706 270.64C366.306 270.64 365.968 270.743 365.691 270.948C365.418 271.154 365.21 271.442 365.069 271.811C364.927 272.18 364.857 272.61 364.857 273.102ZM374.941 276.643V275.61L378.136 272.299C378.477 271.94 378.758 271.625 378.98 271.354C379.204 271.081 379.372 270.821 379.482 270.575C379.593 270.329 379.648 270.068 379.648 269.791C379.648 269.478 379.575 269.207 379.427 268.98C379.279 268.749 379.078 268.572 378.823 268.449C378.568 268.323 378.28 268.26 377.961 268.26C377.623 268.26 377.328 268.33 377.075 268.468C376.823 268.606 376.63 268.801 376.495 269.053C376.359 269.305 376.292 269.601 376.292 269.939H374.931C374.931 269.364 375.064 268.861 375.328 268.431C375.592 268.001 375.955 267.667 376.416 267.43C376.877 267.191 377.401 267.071 377.988 267.071C378.582 267.071 379.104 267.189 379.556 267.426C380.011 267.659 380.366 267.979 380.621 268.385C380.876 268.788 381.004 269.242 381.004 269.75C381.004 270.1 380.938 270.443 380.806 270.778C380.677 271.113 380.451 271.486 380.128 271.898C379.805 272.307 379.356 272.804 378.781 273.388L376.905 275.352V275.421H381.156V276.643H374.941ZM382.502 274.799V273.646L386.583 267.2H387.491V268.897H386.915L383.996 273.517V273.591H389.589V274.799H382.502ZM386.98 276.643V274.448L386.989 273.922V267.2H388.34V276.643H386.98ZM398.215 267.2V276.643H396.786V268.629H396.73L394.471 270.105V268.74L396.827 267.2H398.215ZM403.909 267.071C404.331 267.074 404.746 267.151 405.154 267.301C405.563 267.452 405.932 267.698 406.261 268.039C406.593 268.38 406.857 268.841 407.054 269.422C407.254 270 407.355 270.719 407.358 271.58C407.358 272.407 407.275 273.143 407.109 273.789C406.943 274.431 406.705 274.974 406.395 275.416C406.087 275.859 405.714 276.196 405.274 276.426C404.835 276.657 404.34 276.772 403.79 276.772C403.227 276.772 402.728 276.661 402.291 276.44C401.855 276.219 401.499 275.913 401.226 275.522C400.952 275.129 400.782 274.677 400.714 274.167H402.12C402.213 274.573 402.4 274.902 402.683 275.154C402.969 275.403 403.338 275.527 403.79 275.527C404.481 275.527 405.021 275.226 405.408 274.623C405.795 274.018 405.99 273.172 405.994 272.087H405.92C405.76 272.352 405.56 272.579 405.32 272.77C405.084 272.96 404.818 273.108 404.523 273.212C404.228 273.317 403.913 273.369 403.577 273.369C403.033 273.369 402.538 273.235 402.093 272.968C401.647 272.701 401.292 272.333 401.028 271.866C400.763 271.399 400.631 270.865 400.631 270.266C400.631 269.67 400.766 269.129 401.037 268.643C401.31 268.157 401.692 267.773 402.18 267.49C402.672 267.204 403.249 267.065 403.909 267.071ZM403.914 268.27C403.554 268.27 403.23 268.359 402.941 268.537C402.655 268.712 402.429 268.95 402.263 269.252C402.097 269.55 402.014 269.882 402.014 270.248C402.014 270.613 402.094 270.945 402.254 271.244C402.417 271.539 402.638 271.774 402.918 271.949C403.201 272.121 403.524 272.207 403.886 272.207C404.157 272.207 404.409 272.155 404.643 272.05C404.876 271.946 405.081 271.802 405.256 271.617C405.431 271.43 405.568 271.217 405.666 270.981C405.765 270.744 405.814 270.495 405.814 270.234C405.814 269.886 405.731 269.564 405.565 269.266C405.402 268.967 405.177 268.728 404.892 268.546C404.606 268.362 404.28 268.27 403.914 268.27ZM409.951 275.472C409.699 275.472 409.482 275.383 409.301 275.204C409.119 275.023 409.029 274.805 409.029 274.55C409.029 274.298 409.119 274.082 409.301 273.904C409.482 273.723 409.699 273.632 409.951 273.632C410.203 273.632 410.42 273.723 410.601 273.904C410.782 274.082 410.873 274.298 410.873 274.55C410.873 274.719 410.83 274.874 410.744 275.015C410.661 275.154 410.55 275.264 410.412 275.347C410.274 275.43 410.12 275.472 409.951 275.472ZM409.951 270.741C409.699 270.741 409.482 270.652 409.301 270.474C409.119 270.292 409.029 270.074 409.029 269.819C409.029 269.567 409.119 269.352 409.301 269.173C409.482 268.992 409.699 268.901 409.951 268.901C410.203 268.901 410.42 268.992 410.601 269.173C410.782 269.352 410.873 269.567 410.873 269.819C410.873 269.988 410.83 270.143 410.744 270.285C410.661 270.423 410.55 270.534 410.412 270.617C410.274 270.7 410.12 270.741 409.951 270.741ZM415.818 276.772C415.24 276.772 414.721 276.661 414.26 276.44C413.802 276.216 413.436 275.908 413.162 275.518C412.889 275.127 412.743 274.682 412.724 274.181H414.107C414.141 274.586 414.321 274.92 414.647 275.181C414.973 275.443 415.363 275.573 415.818 275.573C416.181 275.573 416.502 275.49 416.782 275.324C417.065 275.155 417.286 274.923 417.446 274.628C417.609 274.333 417.69 273.996 417.69 273.618C417.69 273.234 417.607 272.891 417.441 272.59C417.275 272.289 417.046 272.052 416.754 271.88C416.465 271.708 416.133 271.62 415.758 271.617C415.472 271.617 415.185 271.666 414.896 271.765C414.607 271.863 414.373 271.992 414.195 272.152L412.89 271.958L413.42 267.2H418.612V268.422H414.605L414.306 271.064H414.361C414.545 270.885 414.79 270.736 415.094 270.617C415.402 270.497 415.73 270.437 416.081 270.437C416.656 270.437 417.168 270.573 417.616 270.847C418.068 271.121 418.423 271.494 418.681 271.967C418.943 272.438 419.072 272.979 419.069 273.591C419.072 274.202 418.933 274.748 418.654 275.227C418.377 275.707 417.993 276.085 417.501 276.362C417.012 276.635 416.451 276.772 415.818 276.772ZM423.893 267.071C424.314 267.074 424.729 267.151 425.138 267.301C425.547 267.452 425.915 267.698 426.244 268.039C426.576 268.38 426.841 268.841 427.037 269.422C427.237 270 427.339 270.719 427.342 271.58C427.342 272.407 427.259 273.143 427.093 273.789C426.927 274.431 426.689 274.974 426.378 275.416C426.071 275.859 425.697 276.196 425.258 276.426C424.818 276.657 424.323 276.772 423.773 276.772C423.21 276.772 422.711 276.661 422.274 276.44C421.838 276.219 421.483 275.913 421.209 275.522C420.936 275.129 420.765 274.677 420.698 274.167H422.104C422.196 274.573 422.384 274.902 422.666 275.154C422.952 275.403 423.321 275.527 423.773 275.527C424.465 275.527 425.004 275.226 425.391 274.623C425.779 274.018 425.974 273.172 425.977 272.087H425.903C425.743 272.352 425.543 272.579 425.304 272.77C425.067 272.96 424.801 273.108 424.506 273.212C424.211 273.317 423.896 273.369 423.561 273.369C423.017 273.369 422.522 273.235 422.076 272.968C421.63 272.701 421.275 272.333 421.011 271.866C420.747 271.399 420.615 270.865 420.615 270.266C420.615 269.67 420.75 269.129 421.02 268.643C421.294 268.157 421.675 267.773 422.164 267.49C422.656 267.204 423.232 267.065 423.893 267.071ZM423.897 268.27C423.538 268.27 423.213 268.359 422.925 268.537C422.639 268.712 422.413 268.95 422.247 269.252C422.081 269.55 421.998 269.882 421.998 270.248C421.998 270.613 422.078 270.945 422.238 271.244C422.4 271.539 422.622 271.774 422.901 271.949C423.184 272.121 423.507 272.207 423.87 272.207C424.14 272.207 424.392 272.155 424.626 272.05C424.86 271.946 425.064 271.802 425.239 271.617C425.414 271.43 425.551 271.217 425.65 270.981C425.748 270.744 425.797 270.495 425.797 270.234C425.797 269.886 425.714 269.564 425.548 269.266C425.385 268.967 425.161 268.728 424.875 268.546C424.589 268.362 424.263 268.27 423.897 268.27ZM438.645 267.2H440.075V273.411C440.075 274.072 439.919 274.657 439.609 275.167C439.298 275.675 438.862 276.074 438.299 276.366C437.737 276.655 437.078 276.8 436.321 276.8C435.568 276.8 434.91 276.655 434.348 276.366C433.785 276.074 433.349 275.675 433.038 275.167C432.728 274.657 432.573 274.072 432.573 273.411V267.2H433.997V273.295C433.997 273.723 434.091 274.102 434.279 274.434C434.469 274.766 434.738 275.028 435.086 275.218C435.433 275.406 435.845 275.499 436.321 275.499C436.801 275.499 437.214 275.406 437.562 275.218C437.912 275.028 438.179 274.766 438.364 274.434C438.551 274.102 438.645 273.723 438.645 273.295V267.2ZM441.68 268.426V267.2H448.988V268.426H446.042V276.643H444.622V268.426H441.68ZM458.041 270.271H456.602C456.547 269.963 456.444 269.693 456.293 269.459C456.143 269.226 455.958 269.027 455.74 268.864C455.522 268.701 455.277 268.579 455.007 268.496C454.739 268.413 454.455 268.371 454.154 268.371C453.61 268.371 453.122 268.508 452.692 268.781C452.265 269.055 451.927 269.456 451.678 269.985C451.432 270.514 451.309 271.159 451.309 271.921C451.309 272.69 451.432 273.338 451.678 273.867C451.927 274.396 452.266 274.795 452.697 275.066C453.127 275.336 453.611 275.472 454.149 275.472C454.447 275.472 454.73 275.432 454.998 275.352C455.268 275.269 455.512 275.147 455.731 274.988C455.949 274.828 456.133 274.633 456.284 274.402C456.438 274.168 456.544 273.901 456.602 273.6L458.041 273.604C457.964 274.068 457.815 274.496 457.593 274.886C457.375 275.273 457.094 275.609 456.75 275.891C456.408 276.171 456.018 276.388 455.579 276.541C455.139 276.695 454.659 276.772 454.14 276.772C453.322 276.772 452.594 276.578 451.954 276.191C451.315 275.801 450.811 275.243 450.442 274.517C450.076 273.792 449.893 272.927 449.893 271.921C449.893 270.913 450.078 270.048 450.447 269.325C450.816 268.6 451.32 268.044 451.959 267.656C452.598 267.266 453.325 267.071 454.14 267.071C454.641 267.071 455.108 267.143 455.542 267.287C455.978 267.429 456.37 267.638 456.717 267.915C457.065 268.188 457.352 268.523 457.58 268.92C457.807 269.313 457.961 269.764 458.041 270.271ZM463.808 271.322V272.521H459.621V271.322H463.808ZM468.744 276.772C468.166 276.772 467.646 276.661 467.185 276.44C466.727 276.216 466.361 275.908 466.088 275.518C465.814 275.127 465.668 274.682 465.65 274.181H467.033C467.067 274.586 467.247 274.92 467.572 275.181C467.898 275.443 468.289 275.573 468.744 275.573C469.106 275.573 469.428 275.49 469.707 275.324C469.99 275.155 470.211 274.923 470.371 274.628C470.534 274.333 470.616 273.996 470.616 273.618C470.616 273.234 470.533 272.891 470.367 272.59C470.201 272.289 469.972 272.052 469.68 271.88C469.391 271.708 469.059 271.62 468.684 271.617C468.398 271.617 468.11 271.666 467.821 271.765C467.533 271.863 467.299 271.992 467.121 272.152L465.816 271.958L466.346 267.2H471.538V268.422H467.531L467.231 271.064H467.287C467.471 270.885 467.715 270.736 468.02 270.617C468.327 270.497 468.656 270.437 469.006 270.437C469.581 270.437 470.093 270.573 470.542 270.847C470.994 271.121 471.349 271.494 471.607 271.967C471.868 272.438 471.997 272.979 471.994 273.591C471.997 274.202 471.859 274.748 471.579 275.227C471.303 275.707 470.918 276.085 470.427 276.362C469.938 276.635 469.377 276.772 468.744 276.772ZM479.784 271.921C479.784 273.08 479.632 274.145 479.328 275.117C479.023 276.088 478.579 276.984 477.995 277.805H476.732C476.959 277.5 477.171 277.127 477.368 276.684C477.565 276.242 477.737 275.758 477.885 275.232C478.032 274.703 478.147 274.156 478.23 273.591C478.313 273.025 478.355 272.469 478.355 271.921C478.355 271.193 478.283 270.454 478.138 269.704C477.994 268.954 477.799 268.257 477.553 267.615C477.307 266.972 477.033 266.448 476.732 266.043H477.995C478.579 266.863 479.023 267.759 479.328 268.731C479.632 269.702 479.784 270.766 479.784 271.921Z" fill="#5A6475"/>
<path d="M140.17 325.882V324.729L144.251 318.283H145.159V319.98H144.583L141.664 324.6V324.674H147.257V325.882H140.17ZM144.648 327.726V325.531L144.657 325.006V318.283H146.008V327.726H144.648ZM152.152 327.883C151.423 327.88 150.801 327.688 150.284 327.307C149.768 326.925 149.373 326.371 149.099 325.642C148.826 324.914 148.689 324.036 148.689 323.009C148.689 321.986 148.826 321.111 149.099 320.386C149.376 319.66 149.772 319.107 150.289 318.726C150.808 318.345 151.429 318.154 152.152 318.154C152.874 318.154 153.493 318.346 154.01 318.73C154.526 319.112 154.921 319.665 155.195 320.39C155.471 321.113 155.61 321.986 155.61 323.009C155.61 324.039 155.473 324.918 155.199 325.647C154.926 326.372 154.531 326.927 154.014 327.311C153.498 327.692 152.877 327.883 152.152 327.883ZM152.152 326.652C152.791 326.652 153.291 326.34 153.65 325.716C154.013 325.092 154.194 324.19 154.194 323.009C154.194 322.225 154.111 321.563 153.945 321.022C153.782 320.478 153.547 320.066 153.24 319.786C152.936 319.503 152.573 319.362 152.152 319.362C151.515 319.362 151.016 319.676 150.653 320.303C150.29 320.93 150.108 321.832 150.104 323.009C150.104 323.796 150.186 324.462 150.349 325.006C150.515 325.547 150.75 325.957 151.054 326.237C151.359 326.513 151.724 326.652 152.152 326.652ZM160.533 327.883C159.805 327.88 159.182 327.688 158.666 327.307C158.149 326.925 157.754 326.371 157.481 325.642C157.207 324.914 157.07 324.036 157.07 323.009C157.07 321.986 157.207 321.111 157.481 320.386C157.757 319.66 158.154 319.107 158.67 318.726C159.19 318.345 159.811 318.154 160.533 318.154C161.255 318.154 161.875 318.346 162.391 318.73C162.908 319.112 163.303 319.665 163.576 320.39C163.853 321.113 163.991 321.986 163.991 323.009C163.991 324.039 163.854 324.918 163.581 325.647C163.307 326.372 162.912 326.927 162.396 327.311C161.879 327.692 161.258 327.883 160.533 327.883ZM160.533 326.652C161.172 326.652 161.672 326.34 162.032 325.716C162.394 325.092 162.576 324.19 162.576 323.009C162.576 322.225 162.493 321.563 162.327 321.022C162.164 320.478 161.929 320.066 161.621 319.786C161.317 319.503 160.954 319.362 160.533 319.362C159.897 319.362 159.397 319.676 159.034 320.303C158.672 320.93 158.489 321.832 158.486 323.009C158.486 323.796 158.567 324.462 158.73 325.006C158.896 325.547 159.131 325.957 159.436 326.237C159.74 326.513 160.106 326.652 160.533 326.652ZM175.265 318.283H176.694V324.494C176.694 325.155 176.539 325.74 176.228 326.251C175.918 326.758 175.481 327.157 174.919 327.449C174.356 327.738 173.697 327.883 172.941 327.883C172.188 327.883 171.53 327.738 170.967 327.449C170.405 327.157 169.968 326.758 169.658 326.251C169.347 325.74 169.192 325.155 169.192 324.494V318.283H170.617V324.379C170.617 324.806 170.711 325.186 170.898 325.518C171.089 325.85 171.358 326.111 171.705 326.301C172.052 326.489 172.464 326.583 172.941 326.583C173.42 326.583 173.834 326.489 174.181 326.301C174.532 326.111 174.799 325.85 174.983 325.518C175.171 325.186 175.265 324.806 175.265 324.379V318.283ZM183.916 320.764C183.867 320.327 183.664 319.989 183.307 319.749C182.951 319.507 182.502 319.385 181.961 319.385C181.573 319.385 181.238 319.447 180.956 319.57C180.673 319.689 180.453 319.855 180.296 320.068C180.143 320.277 180.066 320.515 180.066 320.782C180.066 321.007 180.118 321.2 180.222 321.363C180.33 321.526 180.47 321.663 180.642 321.774C180.817 321.881 181.005 321.972 181.205 322.046C181.404 322.116 181.596 322.175 181.781 322.221L182.703 322.461C183.004 322.534 183.313 322.634 183.63 322.76C183.946 322.886 184.24 323.052 184.511 323.258C184.781 323.464 184.999 323.719 185.165 324.024C185.334 324.328 185.419 324.692 185.419 325.116C185.419 325.651 185.281 326.126 185.004 326.541C184.73 326.956 184.332 327.283 183.81 327.523C183.29 327.763 182.662 327.883 181.924 327.883C181.217 327.883 180.605 327.771 180.089 327.546C179.572 327.322 179.168 327.004 178.876 326.592C178.584 326.177 178.423 325.685 178.392 325.116H179.821C179.849 325.458 179.96 325.742 180.153 325.969C180.35 326.194 180.601 326.361 180.905 326.472C181.212 326.58 181.549 326.633 181.915 326.633C182.317 326.633 182.675 326.57 182.989 326.444C183.306 326.315 183.555 326.137 183.736 325.909C183.917 325.679 184.008 325.41 184.008 325.103C184.008 324.823 183.928 324.594 183.768 324.416C183.611 324.237 183.398 324.09 183.127 323.973C182.86 323.856 182.557 323.753 182.219 323.664L181.103 323.36C180.347 323.154 179.748 322.851 179.305 322.451C178.865 322.052 178.646 321.523 178.646 320.865C178.646 320.321 178.793 319.846 179.088 319.44C179.383 319.035 179.783 318.72 180.287 318.495C180.791 318.268 181.36 318.154 181.993 318.154C182.632 318.154 183.196 318.266 183.685 318.491C184.177 318.715 184.564 319.024 184.847 319.417C185.13 319.808 185.277 320.257 185.29 320.764H183.916ZM190.178 327.726H187.121V318.283H190.275C191.2 318.283 191.995 318.472 192.659 318.85C193.323 319.225 193.832 319.765 194.185 320.469C194.542 321.17 194.72 322.01 194.72 322.991C194.72 323.974 194.54 324.82 194.181 325.527C193.824 326.234 193.308 326.778 192.631 327.159C191.955 327.537 191.137 327.726 190.178 327.726ZM188.546 326.481H190.1C190.819 326.481 191.417 326.346 191.894 326.075C192.37 325.802 192.727 325.407 192.963 324.89C193.2 324.371 193.318 323.738 193.318 322.991C193.318 322.25 193.2 321.621 192.963 321.105C192.73 320.589 192.381 320.197 191.917 319.929C191.453 319.662 190.876 319.528 190.188 319.528H188.546V326.481Z" fill="#5A6475"/>
<path d="M249.447 318.283V327.726H248.018V319.712H247.963L245.703 321.188V319.823L248.059 318.283H249.447ZM255.289 327.883C254.561 327.88 253.938 327.688 253.422 327.307C252.905 326.925 252.51 326.371 252.237 325.642C251.963 324.914 251.827 324.036 251.827 323.009C251.827 321.986 251.963 321.111 252.237 320.386C252.514 319.66 252.91 319.107 253.426 318.726C253.946 318.345 254.567 318.154 255.289 318.154C256.012 318.154 256.631 318.346 257.147 318.73C257.664 319.112 258.059 319.665 258.332 320.39C258.609 321.113 258.747 321.986 258.747 323.009C258.747 324.039 258.611 324.918 258.337 325.647C258.063 326.372 257.668 326.927 257.152 327.311C256.636 327.692 256.015 327.883 255.289 327.883ZM255.289 326.652C255.929 326.652 256.428 326.34 256.788 325.716C257.15 325.092 257.332 324.19 257.332 323.009C257.332 322.225 257.249 321.563 257.083 321.022C256.92 320.478 256.685 320.066 256.377 319.786C256.073 319.503 255.71 319.362 255.289 319.362C254.653 319.362 254.153 319.676 253.791 320.303C253.428 320.93 253.245 321.832 253.242 323.009C253.242 323.796 253.323 324.462 253.486 325.006C253.652 325.547 253.888 325.957 254.192 326.237C254.496 326.513 254.862 326.652 255.289 326.652ZM263.671 327.883C262.942 327.88 262.32 327.688 261.803 327.307C261.287 326.925 260.892 326.371 260.618 325.642C260.345 324.914 260.208 324.036 260.208 323.009C260.208 321.986 260.345 321.111 260.618 320.386C260.895 319.66 261.291 319.107 261.808 318.726C262.327 318.345 262.948 318.154 263.671 318.154C264.393 318.154 265.012 318.346 265.529 318.73C266.045 319.112 266.44 319.665 266.714 320.39C266.99 321.113 267.129 321.986 267.129 323.009C267.129 324.039 266.992 324.918 266.718 325.647C266.445 326.372 266.05 326.927 265.533 327.311C265.017 327.692 264.396 327.883 263.671 327.883ZM263.671 326.652C264.31 326.652 264.809 326.34 265.169 325.716C265.532 325.092 265.713 324.19 265.713 323.009C265.713 322.225 265.63 321.563 265.464 321.022C265.301 320.478 265.066 320.066 264.759 319.786C264.454 319.503 264.092 319.362 263.671 319.362C263.034 319.362 262.535 319.676 262.172 320.303C261.809 320.93 261.626 321.832 261.623 323.009C261.623 323.796 261.705 324.462 261.868 325.006C262.034 325.547 262.269 325.957 262.573 326.237C262.878 326.513 263.243 326.652 263.671 326.652ZM272.052 327.883C271.323 327.88 270.701 327.688 270.185 327.307C269.668 326.925 269.273 326.371 269 325.642C268.726 324.914 268.589 324.036 268.589 323.009C268.589 321.986 268.726 321.111 269 320.386C269.276 319.66 269.673 319.107 270.189 318.726C270.709 318.345 271.33 318.154 272.052 318.154C272.774 318.154 273.394 318.346 273.91 318.73C274.427 319.112 274.822 319.665 275.095 320.39C275.372 321.113 275.51 321.986 275.51 323.009C275.51 324.039 275.373 324.918 275.1 325.647C274.826 326.372 274.431 326.927 273.915 327.311C273.398 327.692 272.777 327.883 272.052 327.883ZM272.052 326.652C272.691 326.652 273.191 326.34 273.55 325.716C273.913 325.092 274.095 324.19 274.095 323.009C274.095 322.225 274.012 321.563 273.846 321.022C273.683 320.478 273.448 320.066 273.14 319.786C272.836 319.503 272.473 319.362 272.052 319.362C271.416 319.362 270.916 319.676 270.553 320.303C270.191 320.93 270.008 321.832 270.005 323.009C270.005 323.796 270.086 324.462 270.249 325.006C270.415 325.547 270.65 325.957 270.955 326.237C271.259 326.513 271.625 326.652 272.052 326.652ZM286.784 318.283H288.213V324.494C288.213 325.155 288.058 325.74 287.747 326.251C287.437 326.758 287 327.157 286.438 327.449C285.875 327.738 285.216 327.883 284.46 327.883C283.707 327.883 283.049 327.738 282.486 327.449C281.924 327.157 281.487 326.758 281.177 326.251C280.866 325.74 280.711 325.155 280.711 324.494V318.283H282.136V324.379C282.136 324.806 282.23 325.186 282.417 325.518C282.608 325.85 282.877 326.111 283.224 326.301C283.571 326.489 283.983 326.583 284.46 326.583C284.939 326.583 285.353 326.489 285.7 326.301C286.05 326.111 286.318 325.85 286.502 325.518C286.69 325.186 286.784 324.806 286.784 324.379V318.283ZM295.435 320.764C295.386 320.327 295.183 319.989 294.826 319.749C294.469 319.507 294.021 319.385 293.48 319.385C293.092 319.385 292.757 319.447 292.475 319.57C292.192 319.689 291.972 319.855 291.815 320.068C291.661 320.277 291.585 320.515 291.585 320.782C291.585 321.007 291.637 321.2 291.741 321.363C291.849 321.526 291.989 321.663 292.161 321.774C292.336 321.881 292.524 321.972 292.724 322.046C292.923 322.116 293.115 322.175 293.3 322.221L294.222 322.461C294.523 322.534 294.832 322.634 295.149 322.76C295.465 322.886 295.759 323.052 296.029 323.258C296.3 323.464 296.518 323.719 296.684 324.024C296.853 324.328 296.938 324.692 296.938 325.116C296.938 325.651 296.799 326.126 296.523 326.541C296.249 326.956 295.851 327.283 295.329 327.523C294.809 327.763 294.181 327.883 293.443 327.883C292.736 327.883 292.124 327.771 291.608 327.546C291.091 327.322 290.687 327.004 290.395 326.592C290.103 326.177 289.942 325.685 289.911 325.116H291.34C291.368 325.458 291.479 325.742 291.672 325.969C291.869 326.194 292.119 326.361 292.424 326.472C292.731 326.58 293.068 326.633 293.434 326.633C293.836 326.633 294.194 326.57 294.508 326.444C294.825 326.315 295.074 326.137 295.255 325.909C295.436 325.679 295.527 325.41 295.527 325.103C295.527 324.823 295.447 324.594 295.287 324.416C295.13 324.237 294.917 324.09 294.646 323.973C294.379 323.856 294.076 323.753 293.738 323.664L292.622 323.36C291.866 323.154 291.266 322.851 290.824 322.451C290.384 322.052 290.164 321.523 290.164 320.865C290.164 320.321 290.312 319.846 290.607 319.44C290.902 319.035 291.302 318.72 291.806 318.495C292.31 318.268 292.879 318.154 293.512 318.154C294.151 318.154 294.715 318.266 295.204 318.491C295.696 318.715 296.083 319.024 296.366 319.417C296.649 319.808 296.796 320.257 296.809 320.764H295.435ZM301.697 327.726H298.64V318.283H301.794C302.719 318.283 303.514 318.472 304.178 318.85C304.842 319.225 305.351 319.765 305.704 320.469C306.061 321.17 306.239 322.01 306.239 322.991C306.239 323.974 306.059 324.82 305.7 325.527C305.343 326.234 304.827 326.778 304.15 327.159C303.474 327.537 302.656 327.726 301.697 327.726ZM300.065 326.481H301.619C302.338 326.481 302.936 326.346 303.413 326.075C303.889 325.802 304.246 325.407 304.482 324.89C304.719 324.371 304.837 323.738 304.837 322.991C304.837 322.25 304.719 321.621 304.482 321.105C304.249 320.589 303.9 320.197 303.436 319.929C302.971 319.662 302.395 319.528 301.707 319.528H300.065V326.481Z" fill="#5A6475"/>
<path d="M389.373 327.855C388.795 327.855 388.275 327.745 387.814 327.523C387.356 327.299 386.99 326.991 386.717 326.601C386.443 326.211 386.297 325.765 386.279 325.264H387.662C387.696 325.67 387.876 326.003 388.201 326.264C388.527 326.526 388.918 326.656 389.373 326.656C389.735 326.656 390.056 326.573 390.336 326.407C390.619 326.238 390.84 326.006 391 325.711C391.163 325.416 391.245 325.08 391.245 324.701C391.245 324.317 391.162 323.974 390.996 323.673C390.83 323.372 390.601 323.135 390.309 322.963C390.02 322.791 389.688 322.703 389.313 322.7C389.027 322.7 388.739 322.75 388.45 322.848C388.161 322.946 387.928 323.075 387.749 323.235L386.445 323.042L386.975 318.283H392.167V319.505H388.16L387.86 322.147H387.915C388.1 321.969 388.344 321.82 388.649 321.7C388.956 321.58 389.285 321.52 389.635 321.52C390.21 321.52 390.722 321.657 391.171 321.93C391.623 322.204 391.978 322.577 392.236 323.051C392.497 323.521 392.626 324.062 392.623 324.674C392.626 325.285 392.488 325.831 392.208 326.311C391.932 326.79 391.547 327.168 391.055 327.445C390.567 327.718 390.006 327.855 389.373 327.855ZM397.595 327.883C396.866 327.88 396.244 327.688 395.727 327.307C395.211 326.925 394.816 326.371 394.542 325.642C394.269 324.914 394.132 324.036 394.132 323.009C394.132 321.986 394.269 321.111 394.542 320.386C394.819 319.66 395.216 319.107 395.732 318.726C396.251 318.345 396.872 318.154 397.595 318.154C398.317 318.154 398.937 318.346 399.453 318.73C399.969 319.112 400.364 319.665 400.638 320.39C400.915 321.113 401.053 321.986 401.053 323.009C401.053 324.039 400.916 324.918 400.643 325.647C400.369 326.372 399.974 326.927 399.458 327.311C398.941 327.692 398.32 327.883 397.595 327.883ZM397.595 326.652C398.234 326.652 398.734 326.34 399.093 325.716C399.456 325.092 399.637 324.19 399.637 323.009C399.637 322.225 399.554 321.563 399.388 321.022C399.225 320.478 398.99 320.066 398.683 319.786C398.379 319.503 398.016 319.362 397.595 319.362C396.958 319.362 396.459 319.676 396.096 320.303C395.734 320.93 395.551 321.832 395.548 323.009C395.548 323.796 395.629 324.462 395.792 325.006C395.958 325.547 396.193 325.957 396.497 326.237C396.802 326.513 397.168 326.652 397.595 326.652ZM405.976 327.883C405.248 327.88 404.625 327.688 404.109 327.307C403.592 326.925 403.197 326.371 402.924 325.642C402.65 324.914 402.513 324.036 402.513 323.009C402.513 321.986 402.65 321.111 402.924 320.386C403.2 319.66 403.597 319.107 404.113 318.726C404.633 318.345 405.254 318.154 405.976 318.154C406.699 318.154 407.318 318.346 407.834 318.73C408.351 319.112 408.746 319.665 409.019 320.39C409.296 321.113 409.434 321.986 409.434 323.009C409.434 324.039 409.297 324.918 409.024 325.647C408.75 326.372 408.355 326.927 407.839 327.311C407.323 327.692 406.702 327.883 405.976 327.883ZM405.976 326.652C406.616 326.652 407.115 326.34 407.475 325.716C407.837 325.092 408.019 324.19 408.019 323.009C408.019 322.225 407.936 321.563 407.77 321.022C407.607 320.478 407.372 320.066 407.064 319.786C406.76 319.503 406.397 319.362 405.976 319.362C405.34 319.362 404.84 319.676 404.478 320.303C404.115 320.93 403.932 321.832 403.929 323.009C403.929 323.796 404.01 324.462 404.173 325.006C404.339 325.547 404.574 325.957 404.879 326.237C405.183 326.513 405.549 326.652 405.976 326.652ZM414.358 327.883C413.629 327.88 413.007 327.688 412.49 327.307C411.974 326.925 411.579 326.371 411.305 325.642C411.032 324.914 410.895 324.036 410.895 323.009C410.895 321.986 411.032 321.111 411.305 320.386C411.582 319.66 411.978 319.107 412.495 318.726C413.014 318.345 413.635 318.154 414.358 318.154C415.08 318.154 415.699 318.346 416.216 318.73C416.732 319.112 417.127 319.665 417.401 320.39C417.677 321.113 417.816 321.986 417.816 323.009C417.816 324.039 417.679 324.918 417.405 325.647C417.132 326.372 416.737 326.927 416.22 327.311C415.704 327.692 415.083 327.883 414.358 327.883ZM414.358 326.652C414.997 326.652 415.496 326.34 415.856 325.716C416.219 325.092 416.4 324.19 416.4 323.009C416.4 322.225 416.317 321.563 416.151 321.022C415.988 320.478 415.753 320.066 415.446 319.786C415.141 319.503 414.779 319.362 414.358 319.362C413.721 319.362 413.222 319.676 412.859 320.303C412.496 320.93 412.313 321.832 412.31 323.009C412.31 323.796 412.392 324.462 412.555 325.006C412.721 325.547 412.956 325.957 413.26 326.237C413.564 326.513 413.93 326.652 414.358 326.652ZM429.089 318.283H430.518V324.494C430.518 325.155 430.363 325.74 430.053 326.251C429.742 326.758 429.306 327.157 428.743 327.449C428.181 327.738 427.521 327.883 426.765 327.883C426.012 327.883 425.354 327.738 424.792 327.449C424.229 327.157 423.793 326.758 423.482 326.251C423.172 325.74 423.017 325.155 423.017 324.494V318.283H424.441V324.379C424.441 324.806 424.535 325.186 424.723 325.518C424.913 325.85 425.182 326.111 425.53 326.301C425.877 326.489 426.289 326.583 426.765 326.583C427.245 326.583 427.658 326.489 428.006 326.301C428.356 326.111 428.623 325.85 428.808 325.518C428.995 325.186 429.089 324.806 429.089 324.379V318.283ZM437.74 320.764C437.691 320.327 437.488 319.989 437.132 319.749C436.775 319.507 436.326 319.385 435.785 319.385C435.398 319.385 435.063 319.447 434.78 319.57C434.497 319.689 434.277 319.855 434.121 320.068C433.967 320.277 433.89 320.515 433.89 320.782C433.89 321.007 433.942 321.2 434.047 321.363C434.155 321.526 434.294 321.663 434.467 321.774C434.642 321.881 434.829 321.972 435.029 322.046C435.229 322.116 435.421 322.175 435.605 322.221L436.528 322.461C436.829 322.534 437.138 322.634 437.454 322.76C437.771 322.886 438.065 323.052 438.335 323.258C438.606 323.464 438.824 323.719 438.99 324.024C439.159 324.328 439.243 324.692 439.243 325.116C439.243 325.651 439.105 326.126 438.828 326.541C438.555 326.956 438.157 327.283 437.634 327.523C437.115 327.763 436.486 327.883 435.748 327.883C435.041 327.883 434.43 327.771 433.913 327.546C433.397 327.322 432.993 327.004 432.701 326.592C432.409 326.177 432.247 325.685 432.216 325.116H433.646C433.673 325.458 433.784 325.742 433.978 325.969C434.175 326.194 434.425 326.361 434.729 326.472C435.037 326.58 435.373 326.633 435.739 326.633C436.142 326.633 436.5 326.57 436.813 326.444C437.13 326.315 437.379 326.137 437.56 325.909C437.742 325.679 437.832 325.41 437.832 325.103C437.832 324.823 437.753 324.594 437.593 324.416C437.436 324.237 437.222 324.09 436.952 323.973C436.684 323.856 436.382 323.753 436.043 323.664L434.928 323.36C434.171 323.154 433.572 322.851 433.129 322.451C432.69 322.052 432.47 321.523 432.47 320.865C432.47 320.321 432.618 319.846 432.913 319.44C433.208 319.035 433.607 318.72 434.111 318.495C434.616 318.268 435.184 318.154 435.818 318.154C436.457 318.154 437.021 318.266 437.51 318.491C438.002 318.715 438.389 319.024 438.672 319.417C438.954 319.808 439.102 320.257 439.114 320.764H437.74ZM444.003 327.726H440.946V318.283H444.1C445.025 318.283 445.82 318.472 446.484 318.85C447.147 319.225 447.656 319.765 448.01 320.469C448.366 321.17 448.545 322.01 448.545 322.991C448.545 323.974 448.365 324.82 448.005 325.527C447.649 326.234 447.132 326.778 446.456 327.159C445.78 327.537 444.962 327.726 444.003 327.726ZM442.371 326.481H443.925C444.644 326.481 445.242 326.346 445.718 326.075C446.195 325.802 446.551 325.407 446.788 324.89C447.025 324.371 447.143 323.738 447.143 322.991C447.143 322.25 447.025 321.621 446.788 321.105C446.554 320.589 446.205 320.197 445.741 319.929C445.277 319.662 444.701 319.528 444.012 319.528H442.371V326.481Z" fill="#5A6475"/>
<path d="M132.968 349.985C132.968 346.624 135.693 343.899 139.055 343.899H235.218V356.071H139.055C135.693 356.071 132.968 353.346 132.968 349.985Z" fill="#582066"/>
<path d="M238.464 343.899H379.667V356.071H238.464V343.899Z" fill="#EFE4F2"/>
<path d="M238.464 343.899H315.558V356.071H238.464V343.899Z" fill="#582066"/>
<path d="M485.163 349.985C485.163 353.346 482.438 356.071 479.076 356.071L382.913 356.071L382.913 343.899L479.076 343.899C482.438 343.899 485.163 346.624 485.163 349.985Z" fill="#EFE4F2"/>
<path d="M109 107C109 107 110.435 120.39 116.022 125.978C121.61 131.565 135 133 135 133C135 133 121.61 134.435 116.022 140.022C110.435 145.61 109 159 109 159C109 159 107.565 145.61 101.978 140.022C96.3898 134.435 83 133 83 133C83 133 96.3898 131.565 101.978 125.978C107.565 120.39 109 107 109 107Z" fill="url(#paint1_linear_1039_1158)"/>
<path d="M88 135C88 135 88.6621 141.18 91.2411 143.759C93.8201 146.338 100 147 100 147C100 147 93.8201 147.662 91.2411 150.241C88.6621 152.82 88 159 88 159C88 159 87.3379 152.82 84.7589 150.241C82.1799 147.662 76 147 76 147C76 147 82.1799 146.338 84.7589 143.759C87.3379 141.18 88 135 88 135Z" fill="url(#paint2_linear_1039_1158)"/>
<path d="M98 150C98 150 98.3311 153.09 99.6205 154.379C100.91 155.669 104 156 104 156C104 156 100.91 156.331 99.6205 157.621C98.3311 158.91 98 162 98 162C98 162 97.6689 158.91 96.3795 157.621C95.09 156.331 92 156 92 156C92 156 95.09 155.669 96.3795 154.379C97.6689 153.09 98 150 98 150Z" fill="url(#paint3_linear_1039_1158)"/>
<defs>
<linearGradient id="paint0_linear_1039_1158" x1="113.5" y1="111" x2="429.5" y2="378" gradientUnits="userSpaceOnUse">
<stop stop-color="#C598FF"/>
<stop offset="1" stop-color="#D0D0D0" stop-opacity="0"/>
</linearGradient>
<linearGradient id="paint1_linear_1039_1158" x1="109" y1="107" x2="109" y2="159" gradientUnits="userSpaceOnUse">
<stop stop-color="#814BF4"/>
<stop offset="1" stop-color="#8E5CF7" stop-opacity="0"/>
</linearGradient>
<linearGradient id="paint2_linear_1039_1158" x1="88" y1="135" x2="88" y2="159" gradientUnits="userSpaceOnUse">
<stop stop-color="#814BF4"/>
<stop offset="1" stop-color="#8E5CF7" stop-opacity="0"/>
</linearGradient>
<linearGradient id="paint3_linear_1039_1158" x1="98" y1="150" x2="98" y2="162" gradientUnits="userSpaceOnUse">
<stop stop-color="#814BF4"/>
<stop offset="1" stop-color="#8E5CF7" stop-opacity="0"/>
</linearGradient>
<clipPath id="clip0_1039_1158">
<rect width="19.4762" height="19.4762" fill="white" transform="translate(132.968 167.837)"/>
</clipPath>
<clipPath id="clip1_1039_1158">
<rect width="19.4762" height="19.4762" fill="white" transform="translate(470.232 136.968)"/>
</clipPath>
</defs>
</svg>
