<svg width="631" height="460" viewBox="0 0 631 460" fill="none" xmlns="http://www.w3.org/2000/svg">
<line x1="12.5" y1="2.18556e-08" x2="12.5" y2="460" stroke="#F4EFF6"/>
<line x1="28.5" y1="2.18556e-08" x2="28.5" y2="460" stroke="#F4EFF6"/>
<line x1="44.5" y1="2.18556e-08" x2="44.5" y2="460" stroke="#F4EFF6"/>
<line x1="60.5" y1="2.18556e-08" x2="60.5" y2="460" stroke="#F4EFF6"/>
<line x1="76.5" y1="2.18556e-08" x2="76.5" y2="460" stroke="#F4EFF6"/>
<line x1="92.5" y1="2.18556e-08" x2="92.5" y2="460" stroke="#F4EFF6"/>
<line x1="108.5" y1="2.18556e-08" x2="108.5" y2="460" stroke="#F4EFF6"/>
<line x1="124.5" y1="2.18556e-08" x2="124.5" y2="460" stroke="#F4EFF6"/>
<line x1="140.5" y1="2.18556e-08" x2="140.5" y2="460" stroke="#F4EFF6"/>
<line x1="156.5" y1="2.18556e-08" x2="156.5" y2="460" stroke="#F4EFF6"/>
<line x1="172.5" y1="2.18556e-08" x2="172.5" y2="460" stroke="#F4EFF6"/>
<line x1="188.5" y1="2.18556e-08" x2="188.5" y2="460" stroke="#F4EFF6"/>
<line x1="204.5" y1="2.18556e-08" x2="204.5" y2="460" stroke="#F4EFF6"/>
<line x1="220.5" y1="2.18556e-08" x2="220.5" y2="460" stroke="#F4EFF6"/>
<line x1="236.5" y1="2.18556e-08" x2="236.5" y2="460" stroke="#F4EFF6"/>
<line x1="252.5" y1="2.18556e-08" x2="252.5" y2="460" stroke="#F4EFF6"/>
<line x1="268.5" y1="2.18556e-08" x2="268.5" y2="460" stroke="#F4EFF6"/>
<line x1="284.5" y1="2.18556e-08" x2="284.5" y2="460" stroke="#F4EFF6"/>
<line x1="300.5" y1="2.18556e-08" x2="300.5" y2="460" stroke="#F4EFF6"/>
<line x1="316.5" y1="2.18556e-08" x2="316.5" y2="460" stroke="#F4EFF6"/>
<line x1="332.5" y1="2.18556e-08" x2="332.5" y2="460" stroke="#F4EFF6"/>
<line x1="348.5" y1="2.18556e-08" x2="348.5" y2="460" stroke="#F4EFF6"/>
<line x1="364.5" y1="2.18556e-08" x2="364.5" y2="460" stroke="#F4EFF6"/>
<line x1="380.5" y1="2.18556e-08" x2="380.5" y2="460" stroke="#F4EFF6"/>
<line x1="396.5" y1="2.18556e-08" x2="396.5" y2="460" stroke="#F4EFF6"/>
<line x1="412.5" y1="2.18556e-08" x2="412.5" y2="460" stroke="#F4EFF6"/>
<line x1="428.5" y1="2.18556e-08" x2="428.5" y2="460" stroke="#F4EFF6"/>
<line x1="444.5" y1="2.18556e-08" x2="444.5" y2="460" stroke="#F4EFF6"/>
<line x1="460.5" y1="2.18556e-08" x2="460.5" y2="460" stroke="#F4EFF6"/>
<line x1="476.5" y1="2.18556e-08" x2="476.5" y2="460" stroke="#F4EFF6"/>
<line x1="492.5" y1="2.18556e-08" x2="492.5" y2="460" stroke="#F4EFF6"/>
<line x1="508.5" y1="2.18556e-08" x2="508.5" y2="460" stroke="#F4EFF6"/>
<line x1="524.5" y1="2.18556e-08" x2="524.5" y2="460" stroke="#F4EFF6"/>
<line x1="540.5" y1="2.18556e-08" x2="540.5" y2="460" stroke="#F4EFF6"/>
<line x1="556.5" y1="2.18556e-08" x2="556.5" y2="460" stroke="#F4EFF6"/>
<line x1="572.5" y1="2.18556e-08" x2="572.5" y2="460" stroke="#F4EFF6"/>
<line x1="588.5" y1="2.18556e-08" x2="588.5" y2="460" stroke="#F4EFF6"/>
<line x1="604.5" y1="2.18556e-08" x2="604.5" y2="460" stroke="#F4EFF6"/>
<line x1="620.5" y1="2.18556e-08" x2="620.5" y2="460" stroke="#F4EFF6"/>
<line x1="631" y1="14.5" y2="14.5" stroke="#F4EFF6"/>
<line x1="631" y1="30.5" y2="30.5" stroke="#F4EFF6"/>
<line x1="631" y1="46.5" y2="46.5" stroke="#F4EFF6"/>
<line x1="631" y1="62.5" y2="62.5" stroke="#F4EFF6"/>
<line x1="631" y1="78.5" y2="78.5" stroke="#F4EFF6"/>
<line x1="631" y1="94.5" y2="94.5" stroke="#F4EFF6"/>
<line x1="631" y1="110.5" y2="110.5" stroke="#F4EFF6"/>
<line x1="631" y1="126.5" y2="126.5" stroke="#F4EFF6"/>
<line x1="631" y1="142.5" y2="142.5" stroke="#F4EFF6"/>
<line x1="631" y1="158.5" y2="158.5" stroke="#F4EFF6"/>
<line x1="631" y1="174.5" y2="174.5" stroke="#F4EFF6"/>
<line x1="631" y1="190.5" y2="190.5" stroke="#F4EFF6"/>
<line x1="631" y1="206.5" y2="206.5" stroke="#F4EFF6"/>
<line x1="631" y1="222.5" y2="222.5" stroke="#F4EFF6"/>
<line x1="631" y1="238.5" y2="238.5" stroke="#F4EFF6"/>
<line x1="631" y1="254.5" y2="254.5" stroke="#F4EFF6"/>
<line x1="631" y1="270.5" y2="270.5" stroke="#F4EFF6"/>
<line x1="631" y1="286.5" y2="286.5" stroke="#F4EFF6"/>
<line x1="631" y1="302.5" y2="302.5" stroke="#F4EFF6"/>
<line x1="631" y1="318.5" y2="318.5" stroke="#F4EFF6"/>
<line x1="631" y1="334.5" y2="334.5" stroke="#F4EFF6"/>
<line x1="631" y1="350.5" y2="350.5" stroke="#F4EFF6"/>
<line x1="631" y1="366.5" y2="366.5" stroke="#F4EFF6"/>
<line x1="631" y1="382.5" y2="382.5" stroke="#F4EFF6"/>
<line x1="631" y1="398.5" y2="398.5" stroke="#F4EFF6"/>
<line x1="631" y1="414.5" y2="414.5" stroke="#F4EFF6"/>
<line x1="631" y1="430.5" y2="430.5" stroke="#F4EFF6"/>
<line x1="631" y1="446.5" y2="446.5" stroke="#F4EFF6"/>
</svg>
